<svg width="270" height="181" viewBox="0 0 270 181" fill="none" xmlns="http://www.w3.org/2000/svg">
<path d="M129.165 107.729C131.166 107.593 132.902 108.133 134.565 108.914C135.332 109.285 136.168 109.49 137.02 109.515L139.212 109.468L139.241 85.0926C139.24 84.5435 139.13 83.9999 138.919 83.4932C138.707 82.9864 138.398 82.5262 138.008 82.1391C137.619 81.7519 137.157 81.4453 136.649 81.2368C136.141 81.0283 135.596 80.9219 135.047 80.9238L111.874 81.0102V80.5278C111.885 79.5489 112.118 78.5852 112.554 77.709C113.737 75.2813 114.122 72.5423 113.656 69.8826C113.082 66.6848 111.334 63.8169 108.754 61.8414C106.175 59.8659 102.951 58.9254 99.7138 59.2044C96.4768 59.4834 93.461 60.9618 91.2577 63.3496C89.0545 65.7373 87.8229 68.8621 87.8045 72.111C87.8102 73.8957 88.1904 75.6593 88.9205 77.2878C89.2945 78.1076 89.492 78.9968 89.5001 79.8978L89.6369 80.9958H61.7117C61.1628 80.9939 60.6189 81.1002 60.1111 81.3085C59.6033 81.5168 59.1415 81.823 58.7521 82.2098C58.3626 82.5966 58.0531 83.0563 57.8414 83.5627C57.6296 84.069 57.5196 84.6122 57.5177 85.161V108.997H55.5269C54.6014 108.987 53.6902 108.767 52.8629 108.352C50.511 107.232 47.8699 106.869 45.3029 107.312C42.2808 107.86 39.572 109.515 37.7066 111.955C35.8412 114.395 34.9536 117.444 35.2175 120.504C35.4814 123.564 36.8778 126.415 39.1334 128.499C41.3889 130.584 44.3413 131.752 47.4125 131.774C49.1106 131.774 50.7897 131.417 52.3409 130.726C53.117 130.374 53.9582 130.187 54.8105 130.179H57.3665L57.4169 159.339C57.4183 159.786 57.5078 160.229 57.6803 160.641C57.8527 161.054 58.1048 161.429 58.422 161.744C58.7392 162.059 59.1155 162.309 59.5292 162.479C59.9429 162.649 60.3861 162.735 60.8333 162.734H135.587C137.474 162.734 138.953 160.365 138.953 158.489V132.008H135.929C135.23 132.008 134.536 132.144 133.888 132.407C132.14 133.111 130.243 133.366 128.371 133.151C126.498 132.935 124.709 132.255 123.166 131.172C121.624 130.09 120.376 128.639 119.536 126.952C118.696 125.264 118.291 123.394 118.358 121.51C118.584 115.84 123.48 108.125 129.165 107.729Z" fill="#E0E0E0"/>
<path d="M129.164 107.73L128.966 107.755C128.769 107.774 128.573 107.804 128.379 107.845C127.615 107.997 126.876 108.259 126.187 108.622C124.362 109.555 121.971 111.679 120.168 115.228C119.138 117.193 118.534 119.354 118.397 121.568C118.363 122.837 118.537 124.103 118.911 125.316C119.322 126.63 119.972 127.857 120.83 128.934C121.787 130.133 122.978 131.124 124.333 131.846C125.687 132.567 127.174 133.003 128.703 133.128C130.383 133.282 132.075 133.05 133.65 132.447C134.466 132.091 135.352 131.924 136.242 131.958H139.01V132.008C139.01 136.198 139.01 140.648 139.01 145.353C139.01 147.703 139.01 150.115 139.01 152.589V158.248C139.019 158.574 138.997 158.899 138.945 159.22C138.887 159.541 138.798 159.856 138.679 160.16C138.447 160.78 138.093 161.346 137.639 161.827C137.184 162.332 136.575 162.673 135.907 162.795C135.547 162.831 135.237 162.817 134.903 162.82H106.218H68.083H63.043C62.197 162.82 61.3618 162.838 60.4942 162.802C59.6109 162.712 58.7947 162.29 58.2097 161.622C57.6246 160.955 57.3141 160.09 57.3406 159.202C57.3406 158.346 57.3406 157.485 57.3406 156.625C57.3406 154.902 57.3406 153.169 57.3406 151.426C57.3406 144.466 57.3274 137.38 57.301 130.168L57.3946 130.262H55.7998C55.2691 130.247 54.738 130.259 54.2086 130.298C53.6812 130.361 53.1643 130.493 52.6714 130.69C52.1753 130.912 51.6682 131.108 51.1522 131.277C49.0148 131.957 46.7317 132.037 44.5522 131.507C42.3727 130.978 40.3806 129.86 38.7934 128.275C37.9839 127.477 37.2874 126.572 36.7234 125.586C36.4474 125.088 36.2068 124.572 36.0034 124.041C35.9026 123.775 35.7838 123.516 35.7046 123.242L35.4778 122.414C34.8008 119.698 35.0619 116.833 36.2187 114.284C37.3754 111.736 39.3599 109.653 41.8498 108.374C43.065 107.763 44.3725 107.355 45.7198 107.168C47.0698 106.983 48.4406 107.015 49.7806 107.262C50.445 107.387 51.0986 107.564 51.7354 107.791C52.0558 107.906 52.369 108.032 52.675 108.176C52.9725 108.323 53.2777 108.454 53.5894 108.568C54.8314 109.058 56.1886 108.882 57.5134 108.928L57.4198 109.022C57.4198 103.867 57.4198 98.7776 57.4198 93.7544V86.288C57.3948 85.6654 57.4201 85.0418 57.4954 84.4232C57.607 83.802 57.8595 83.2146 58.2334 82.706C58.6008 82.1987 59.0754 81.7786 59.6236 81.4756C60.1718 81.1726 60.78 80.9941 61.405 80.9528H89.629L89.5462 81.0464C89.4994 80.6864 89.4526 80.3264 89.4094 79.9664C89.4047 79.2963 89.2917 78.6313 89.0746 77.9972C88.9702 77.6804 88.8298 77.3816 88.7146 77.0648C88.5994 76.748 88.4698 76.4348 88.3546 76.1144C87.9429 74.8347 87.7328 73.4988 87.7318 72.1544L87.7858 71.1608C87.7858 70.9952 87.7858 70.826 87.8218 70.664L87.901 70.1708C87.9622 69.8468 87.991 69.5156 88.0774 69.1988L88.3438 68.2448C88.3825 68.0856 88.4355 67.9301 88.5022 67.7804L88.6822 67.3232C88.7916 67.0144 88.9253 66.7147 89.0818 66.4268L89.5354 65.5592L90.0718 64.688C90.8052 63.6277 91.6963 62.6857 92.7142 61.8944L93.0742 61.592L93.4738 61.3292C93.7438 61.1564 94.003 60.9692 94.2766 60.8144C94.828 60.5068 95.3993 60.2362 95.9866 60.0044C97.1495 59.5425 98.3729 59.2504 99.619 59.1368C100.234 59.0806 100.853 59.0709 101.469 59.108C101.775 59.126 102.081 59.1332 102.387 59.1656L103.291 59.3024C105.661 59.7617 107.859 60.8611 109.649 62.4812C111.348 64.0146 112.61 65.9716 113.306 68.1525C114.002 70.3333 114.106 72.6597 113.609 74.894C113.371 75.9509 113.009 76.9757 112.529 77.9468C112.312 78.4265 112.153 78.9305 112.057 79.448C111.972 79.9631 111.94 80.4853 111.96 81.0068L111.891 80.9384L129.531 80.8808H133.538H134.517C134.841 80.8808 135.162 80.8808 135.489 80.8988C136.128 80.9659 136.743 81.175 137.289 81.5108C137.821 81.8339 138.274 82.2712 138.616 82.7912C138.958 83.3111 139.18 83.9006 139.266 84.5168C139.312 85.1096 139.327 85.7045 139.309 86.2988C139.309 86.882 139.309 87.458 139.309 88.0268C139.291 97.1384 139.277 104.382 139.266 109.479V109.504H139.237C138.355 109.504 137.534 109.558 136.764 109.54C136.054 109.482 135.36 109.3 134.712 109.004C133.749 108.524 132.733 108.162 131.684 107.924C131.065 107.792 130.434 107.724 129.801 107.722C129.589 107.722 129.441 107.722 129.333 107.722H129.179C129.386 107.703 129.593 107.694 129.801 107.697C130.436 107.693 131.07 107.755 131.691 107.884C132.744 108.122 133.764 108.484 134.73 108.964C135.375 109.253 136.063 109.431 136.767 109.49C137.531 109.49 138.355 109.461 139.237 109.447L139.212 109.476V86.288C139.23 85.6985 139.215 85.1084 139.169 84.5204C139.084 83.9197 138.867 83.3452 138.533 82.8384C138.199 82.3317 137.757 81.9053 137.239 81.59C136.703 81.2624 136.1 81.0606 135.475 80.9996C135.158 80.9744 134.838 80.978 134.514 80.9816H133.524H129.513L111.873 81.0536H111.809V80.9888C111.785 80.4589 111.818 79.928 111.906 79.4048C112.006 78.877 112.167 78.3624 112.385 77.8712C112.866 76.9109 113.229 75.8954 113.465 74.8472C113.954 72.638 113.85 70.3384 113.162 68.1826C112.474 66.0269 111.227 64.0919 109.548 62.5748C107.778 60.9734 105.602 59.8877 103.259 59.4356L102.366 59.3024C102.063 59.27 101.761 59.2628 101.455 59.2448C100.847 59.2077 100.237 59.2173 99.6298 59.2736C98.3945 59.3847 97.1818 59.6746 96.0298 60.134C95.4482 60.3615 94.8829 60.6285 94.3378 60.9332C94.0678 61.0952 93.8122 61.2932 93.5458 61.4444L93.1534 61.7036L92.7934 62.0024C91.7901 62.7859 90.9113 63.7169 90.187 64.7636L89.6578 65.5628L89.2078 66.4196C89.0551 66.7046 88.9239 67.0007 88.8154 67.3052L88.639 67.7552C88.5723 67.9037 88.5193 68.058 88.4806 68.216L88.2214 69.1556C88.135 69.4688 88.1062 69.7964 88.045 70.1168L87.9658 70.6028C87.9442 70.7648 87.9442 70.9304 87.9334 71.0924L87.8794 72.0752C87.8792 73.4026 88.0869 74.7218 88.495 75.9848C88.5994 76.3016 88.7146 76.6184 88.855 76.928C88.9954 77.2376 89.1286 77.5436 89.2366 77.8676C89.4662 78.5179 89.5878 79.2013 89.5966 79.8908C89.6434 80.2508 89.6866 80.6108 89.737 80.9888V81.0824H89.6398L61.4266 81.104C60.8277 81.1437 60.2449 81.3149 59.7197 81.6055C59.1946 81.8961 58.7399 82.2989 58.3882 82.7852C58.0259 83.2702 57.7796 83.8318 57.6682 84.4268C57.5966 85.0445 57.5738 85.6668 57.5998 86.288C57.5998 88.7624 57.5998 91.2536 57.5998 93.7616V109.123H55.5118C54.8314 109.117 54.1569 108.995 53.5174 108.763C53.2006 108.655 52.8874 108.5 52.5886 108.363C52.2898 108.226 51.9802 108.1 51.667 108.003C51.0391 107.777 50.3938 107.602 49.7374 107.481C48.4176 107.238 47.0675 107.206 45.7378 107.388C44.0513 107.632 42.4347 108.227 40.992 109.133C39.5493 110.04 38.3125 111.239 37.3613 112.653C36.41 114.067 35.7654 115.664 35.4689 117.342C35.1724 119.02 35.2306 120.742 35.6398 122.396L35.8594 123.21C35.9386 123.48 36.0574 123.735 36.1546 123.998C36.3579 124.521 36.5985 125.029 36.8746 125.517C37.7038 126.968 38.8201 128.234 40.1552 129.239C41.4903 130.243 43.0163 130.965 44.6398 131.36C46.7691 131.869 48.997 131.788 51.0838 131.126C51.5963 130.958 52.0997 130.763 52.5922 130.543C53.1007 130.34 53.633 130.203 54.1762 130.136C54.7234 130.075 55.2562 130.107 55.789 130.1H57.4774V130.208C57.4774 137.408 57.4894 144.494 57.5134 151.466C57.5134 153.208 57.5134 154.941 57.5134 156.664C57.5134 157.524 57.5134 158.383 57.5134 159.242C57.4891 160.083 57.7842 160.901 58.3393 161.533C58.8944 162.165 59.6682 162.563 60.505 162.648C61.3366 162.68 62.197 162.648 63.025 162.666H68.065H106.2H134.895C135.223 162.677 135.551 162.669 135.878 162.644C136.515 162.529 137.095 162.205 137.527 161.722C137.969 161.255 138.313 160.705 138.539 160.102C138.655 159.807 138.742 159.5 138.801 159.188C138.851 158.875 138.871 158.558 138.863 158.241C138.863 157.6 138.863 156.967 138.863 156.333V152.582C138.863 150.112 138.863 147.7 138.863 145.346C138.863 140.648 138.863 136.191 138.863 132.001L138.92 132.058H136.209C135.332 132.021 134.458 132.185 133.653 132.537C132.062 133.14 130.355 133.372 128.66 133.218C127.12 133.089 125.623 132.647 124.261 131.917C122.899 131.188 121.701 130.187 120.74 128.977C119.876 127.891 119.221 126.653 118.811 125.326C118.443 124.109 118.278 122.839 118.321 121.568C118.468 119.347 119.081 117.182 120.121 115.214C121.921 111.661 124.344 109.533 126.18 108.612C126.872 108.248 127.615 107.989 128.383 107.841C128.577 107.804 128.773 107.777 128.97 107.762L129.164 107.73Z" fill="#263238"/>
<path d="M227.074 108.727C225.32 108.725 223.585 109.093 221.983 109.807C221.441 110.051 220.868 110.219 220.28 110.308V84.6867C220.281 84.2384 220.193 83.7944 220.022 83.3801C219.85 82.9658 219.599 82.5894 219.282 82.2724C218.965 81.9554 218.589 81.7041 218.174 81.5327C217.76 81.3614 217.316 81.2734 216.868 81.2739H190.206V84.2979C190.209 84.9963 190.344 85.6879 190.606 86.3355C191.151 87.6753 191.431 89.1082 191.43 90.5547C191.432 92.2502 191.052 93.9244 190.32 95.4537C189.588 96.983 188.522 98.3284 187.2 99.3905C185.879 100.453 184.335 101.204 182.684 101.59C181.033 101.976 179.317 101.986 177.661 101.619C176.006 101.253 174.454 100.519 173.12 99.4729C171.786 98.4264 170.704 97.0936 169.954 95.5729C169.204 94.0523 168.805 92.3827 168.787 90.6873C168.768 88.9918 169.131 87.314 169.848 85.7775C170.207 85.0338 170.396 84.2199 170.402 83.3943V81.2739L143.402 81.1875C142.29 81.1875 141.223 81.6294 140.437 82.4159C139.65 83.2024 139.208 84.2692 139.208 85.3815L139.183 109.142H137.34C137.131 109.142 136.919 109.142 136.71 109.12C134.705 107.66 132.343 106.767 129.873 106.536C127.402 106.305 124.916 106.745 122.675 107.808C120.433 108.872 118.521 110.52 117.137 112.58C115.754 114.639 114.952 117.033 114.815 119.51C114.678 121.987 115.212 124.456 116.36 126.655C117.508 128.854 119.227 130.703 121.338 132.007C123.448 133.311 125.871 134.022 128.351 134.065C130.832 134.107 133.278 133.48 135.432 132.25C135.799 132.169 136.173 132.128 136.548 132.127H138.913V158.649C138.913 159.761 139.355 160.828 140.142 161.614C140.928 162.401 141.995 162.843 143.107 162.843H216.868C217.316 162.843 217.76 162.754 218.175 162.583C218.589 162.411 218.965 162.159 219.282 161.842C219.599 161.525 219.85 161.148 220.022 160.733C220.193 160.319 220.281 159.875 220.28 159.426V132.426C220.738 132.541 221.182 132.704 221.605 132.912C223.976 134.07 226.653 134.448 229.252 133.992C232.374 133.431 235.173 131.723 237.102 129.205C239.031 126.687 239.951 123.54 239.68 120.379C239.41 117.219 237.97 114.273 235.641 112.119C233.312 109.965 230.264 108.758 227.092 108.735L227.074 108.727Z" fill="#F5F5F5"/>
<path d="M227.074 108.73L227.876 108.766C228.207 108.773 228.537 108.804 228.863 108.86L229.493 108.964C229.737 108.998 229.978 109.052 230.213 109.126L231.012 109.346C231.289 109.439 231.574 109.562 231.876 109.677C232.024 109.738 232.182 109.792 232.337 109.86L232.798 110.102C233.131 110.26 233.453 110.441 233.762 110.642C235.472 111.712 236.903 113.173 237.937 114.905C238.971 116.637 239.579 118.59 239.71 120.603C239.71 120.912 239.753 121.222 239.753 121.539C239.753 121.856 239.72 122.169 239.702 122.493C239.702 122.651 239.702 122.817 239.666 122.975C239.63 123.134 239.62 123.299 239.594 123.461L239.519 123.954C239.479 124.113 239.443 124.278 239.404 124.44C238.718 127.287 237.084 129.816 234.77 131.612C233.489 132.593 232.034 133.326 230.483 133.772C230.087 133.894 229.673 133.955 229.262 134.052C228.852 134.15 228.424 134.178 227.999 134.204C227.133 134.27 226.263 134.245 225.403 134.128C224.518 134.01 223.648 133.798 222.808 133.494C221.944 133.203 221.162 132.699 220.266 132.497L220.338 132.44C220.338 136.587 220.338 140.984 220.338 145.63C220.338 147.948 220.338 150.327 220.338 152.765C220.338 153.982 220.338 155.217 220.338 156.462V159.288C220.338 159.447 220.338 159.612 220.32 159.771C220.304 159.933 220.278 160.094 220.241 160.253C220.086 160.896 219.752 161.481 219.278 161.942C218.804 162.402 218.209 162.719 217.562 162.856C217.236 162.915 216.904 162.941 216.572 162.932H188.37H150.93H143.496C143.073 162.948 142.649 162.919 142.232 162.845C141.814 162.755 141.411 162.607 141.034 162.406C140.278 161.986 139.666 161.351 139.273 160.581C139.077 160.197 138.942 159.786 138.874 159.36C138.816 158.937 138.795 158.51 138.809 158.082V132.134L138.902 132.224H137.196C136.904 132.224 136.602 132.224 136.314 132.224C136.02 132.239 135.727 132.277 135.439 132.339H135.464C133.742 133.325 131.828 133.931 129.852 134.114C126.755 134.4 123.651 133.636 121.04 131.947C118.428 130.257 116.461 127.739 115.452 124.797C114.971 123.38 114.714 121.897 114.692 120.401C114.694 118.912 114.92 117.431 115.362 116.009C115.813 114.6 116.488 113.273 117.36 112.078C117.798 111.484 118.28 110.924 118.8 110.4L119.617 109.659C119.891 109.418 120.2 109.212 120.488 108.989C121.681 108.141 122.996 107.48 124.387 107.027C125.781 106.61 127.227 106.395 128.682 106.386C131.584 106.406 134.407 107.338 136.75 109.05L136.703 109.032C137.516 109.072 138.348 109.032 139.169 109.054L139.075 109.144C139.075 104.068 139.081 99.0592 139.093 94.1176C139.093 91.6432 139.093 89.1904 139.093 86.7592V85.8484C139.093 85.546 139.093 85.24 139.118 84.9304C139.219 84.0052 139.619 83.1379 140.256 82.4593C140.893 81.7808 141.733 81.3277 142.65 81.1684C143.247 81.1006 143.849 81.0789 144.45 81.1036H146.232H149.782L156.78 81.1288L170.384 81.172H170.467V83.1592C170.485 83.7997 170.395 84.4387 170.201 85.0492C170.1 85.3505 169.979 85.6451 169.841 85.9312C169.711 86.212 169.6 86.5 169.481 86.7916C168.776 88.8078 168.661 90.9831 169.149 93.0623C169.637 95.1416 170.707 97.0387 172.235 98.5312C173.075 99.3527 174.035 100.042 175.082 100.576C177.144 101.626 179.484 102.003 181.771 101.656C183.987 101.324 186.053 100.337 187.704 98.8228C188.507 98.0886 189.198 97.2394 189.752 96.3028C190.308 95.3896 190.723 94.3982 190.984 93.3616C191.522 91.3396 191.476 89.2061 190.85 87.2092C190.714 86.7196 190.49 86.2624 190.343 85.7692C190.205 85.2747 190.136 84.7635 190.138 84.25V81.1936H190.206H209.718H216.22C216.567 81.1841 216.914 81.1925 217.26 81.2188C217.605 81.2607 217.942 81.3516 218.261 81.4888C218.879 81.763 219.404 82.2113 219.772 82.7791C220.139 83.3468 220.334 84.0093 220.331 84.6856C220.331 85.9708 220.331 87.2056 220.331 88.4404C220.331 98.1604 220.331 105.566 220.309 110.285L220.28 110.26C221.483 110.105 222.386 109.522 223.24 109.288C223.936 109.066 224.65 108.904 225.374 108.806C225.8 108.751 226.227 108.717 226.656 108.705C226.94 108.705 227.077 108.705 227.077 108.705H226.656C225.499 108.751 224.353 108.954 223.25 109.31C222.404 109.544 221.501 110.134 220.288 110.296H220.262V110.271C220.262 105.551 220.262 98.1532 220.237 88.426C220.237 87.2092 220.237 85.9576 220.237 84.6712C220.24 84.0152 220.052 83.3726 219.695 82.8221C219.338 82.2715 218.828 81.837 218.228 81.5716C217.919 81.4373 217.591 81.3487 217.256 81.3088C216.922 81.2764 216.572 81.2872 216.227 81.2872H209.718H190.206L190.274 81.2224V84.2104C190.271 84.7119 190.339 85.2112 190.476 85.6936C190.609 86.1724 190.836 86.6368 190.984 87.1336C191.619 89.1557 191.668 91.3166 191.124 93.3652C190.86 94.4143 190.44 95.4179 189.878 96.3424C189.318 97.2904 188.619 98.1494 187.805 98.8912C186.133 100.43 184.039 101.433 181.793 101.771C179.473 102.123 177.101 101.739 175.01 100.673C173.951 100.131 172.98 99.4321 172.13 98.5996C171.268 97.7516 170.545 96.7722 169.988 95.698C169.269 94.3223 168.842 92.8123 168.734 91.2633C168.627 89.7143 168.842 88.1598 169.366 86.698C169.474 86.4028 169.589 86.1076 169.726 85.8232C169.864 85.5432 169.984 85.2546 170.086 84.9592C170.274 84.3649 170.362 83.743 170.345 83.1196V81.2188L170.428 81.3016L156.823 81.262L149.825 81.2404H146.275H144.468C143.876 81.2142 143.282 81.2335 142.693 81.298C141.816 81.4515 141.012 81.8854 140.403 82.5346C139.793 83.1837 139.411 84.013 139.313 84.898C139.288 85.1896 139.284 85.492 139.288 85.798V86.7088C139.288 89.1424 139.288 91.5952 139.288 94.0672C139.288 99.0064 139.288 104.016 139.288 109.097V109.187H139.194C138.37 109.187 137.556 109.209 136.714 109.166H136.688L136.663 109.148C134.351 107.461 131.569 106.542 128.707 106.52C127.272 106.531 125.846 106.744 124.47 107.153C123.085 107.612 121.78 108.283 120.6 109.14C120.316 109.364 120.013 109.562 119.74 109.803L118.937 110.523C118.426 111.039 117.954 111.593 117.526 112.179C116.658 113.355 115.985 114.663 115.531 116.052C115.099 117.452 114.877 118.908 114.872 120.372C114.907 123.943 116.327 127.361 118.832 129.905C120.261 131.335 121.985 132.433 123.884 133.124C125.783 133.814 127.81 134.08 129.823 133.901C131.771 133.728 133.659 133.138 135.36 132.173C135.657 132.109 135.96 132.069 136.264 132.054C136.573 132.054 136.861 132.054 137.156 132.054H138.956V158.1C138.939 158.518 138.959 158.936 139.018 159.35C139.081 159.758 139.21 160.153 139.399 160.52C139.787 161.256 140.386 161.859 141.12 162.251C141.482 162.443 141.868 162.584 142.268 162.672C142.674 162.743 143.085 162.772 143.496 162.759H150.934H188.374H216.59C216.912 162.769 217.234 162.746 217.552 162.69C218.172 162.56 218.743 162.256 219.197 161.813C219.652 161.371 219.971 160.809 220.118 160.192C220.189 159.888 220.221 159.576 220.216 159.263V152.754C220.216 150.318 220.216 147.94 220.216 145.619C220.216 140.98 220.216 136.583 220.216 132.429V132.371H220.288C221.209 132.584 221.99 133.091 222.836 133.376C223.67 133.677 224.532 133.889 225.41 134.009C226.263 134.124 227.126 134.149 227.984 134.085C228.406 134.06 228.823 134.002 229.237 133.937C229.651 133.872 230.054 133.779 230.447 133.66C232.611 133.045 234.573 131.866 236.132 130.242C237.69 128.619 238.788 126.61 239.314 124.422C239.353 124.26 239.393 124.098 239.429 123.936L239.504 123.45L239.58 122.968C239.605 122.806 239.602 122.644 239.612 122.486C239.629 122.164 239.647 121.847 239.666 121.535C239.666 121.226 239.638 120.916 239.627 120.606C239.497 118.604 238.895 116.661 237.871 114.936C236.846 113.21 235.427 111.753 233.73 110.681C233.422 110.48 233.101 110.299 232.769 110.141L232.312 109.9C232.157 109.832 232.002 109.774 231.851 109.713C231.552 109.598 231.268 109.475 230.994 109.382L230.195 109.158C229.96 109.082 229.719 109.025 229.475 108.989L228.845 108.885C228.519 108.825 228.189 108.791 227.858 108.784L227.074 108.73Z" fill="#263238"/>
<path d="M137.161 113.457C137.161 113.457 138.374 112.834 139.444 113.068C140.513 113.302 144.394 115.833 144.394 115.833L147.522 115.25L149.38 124.091L137.161 129.153V113.457Z" fill="#AE7461"/>
<path d="M128.162 116.526C128.162 116.526 130.959 116.166 131.97 115.665C132.982 115.165 135.398 113.016 135.902 113.055C136.406 113.095 138.242 113.444 138.242 113.444L137.5 115.665C137.5 115.665 141.161 117.886 142.252 118.704C143.343 119.521 146.77 123.182 146.932 124.078C147.094 124.975 146.817 126.026 146.388 126.375C145.96 126.724 144.401 126.015 144.401 126.015C144.461 126.291 144.46 126.577 144.398 126.852C144.336 127.128 144.214 127.387 144.041 127.61C143.458 128.391 142.097 128.118 142.097 128.118C142.097 128.118 141.978 129.403 141.356 129.637C140.733 129.871 139.329 129.169 139.329 129.169C139.329 129.169 138.908 130.249 138.4 130.375C137.892 130.501 136.449 129.655 136.449 129.655C136.449 129.655 130.217 125.176 128.817 124.514C127.416 123.852 126.984 123.812 126.984 123.812L128.162 116.526Z" fill="#FFBE9D"/>
<path d="M139.321 129.188C139.295 129.188 139.277 129.08 139.213 128.915C139.123 128.699 139.017 128.491 138.896 128.292C138.698 128.019 138.537 127.721 138.417 127.406C138.69 127.617 138.911 127.888 139.061 128.198C139.188 128.41 139.281 128.639 139.339 128.879C139.371 129.069 139.342 129.192 139.321 129.188Z" fill="#EB996E"/>
<path d="M141.91 128.433C141.62 128.06 141.357 127.666 141.122 127.256C140.697 126.608 140.24 126.176 140.272 126.133C140.692 126.378 141.04 126.729 141.28 127.152C141.568 127.536 141.782 127.97 141.91 128.433Z" fill="#EB996E"/>
<path d="M144.408 126.186C144.354 126.186 144.181 125.527 143.749 124.8C143.317 124.072 142.824 123.586 142.864 123.547C143.289 123.857 143.645 124.251 143.911 124.705C144.176 125.159 144.346 125.663 144.408 126.186Z" fill="#EB996E"/>
<path d="M142.582 121.32C142.829 121.995 142.861 122.729 142.676 123.423C142.612 123.076 142.587 122.724 142.604 122.372C142.559 122.023 142.551 121.67 142.582 121.32Z" fill="#EB996E"/>
<path d="M133.519 117.814C133.519 117.814 134.491 114.7 134.84 114.308C135.189 113.916 138.44 113.062 138.44 113.062L139.451 115.672L138.731 116.436L137.173 116.335C137.173 116.335 136.204 118.905 133.519 117.814Z" fill="#AE7461"/>
<path d="M127.541 123.984C127.541 123.984 127.095 124.326 127.541 125.144C127.988 125.961 129.194 125.378 129.582 125.144C129.582 125.144 128.999 126.508 129.737 126.944C130.241 127.204 130.811 127.312 131.375 127.253C131.375 127.253 131.336 128.07 132.387 128.618C133.438 129.165 133.712 128.618 133.712 128.618C133.712 128.618 133.827 129.978 135.033 130.097C136.239 130.216 136.667 129.798 136.667 129.798L136.124 128.992C136.124 128.992 136.826 127.552 136.282 126.944C136.094 126.756 135.869 126.61 135.621 126.516C135.372 126.421 135.107 126.381 134.842 126.396C134.842 126.396 135.083 125.133 134.388 124.78C134.233 124.683 134.059 124.621 133.878 124.598C133.697 124.574 133.513 124.589 133.338 124.643C133.163 124.697 133.002 124.787 132.865 124.908C132.729 125.029 132.619 125.178 132.545 125.345C132.545 125.345 132.466 123.959 131.465 123.992C130.881 123.998 130.322 124.232 129.906 124.643L127.541 123.984Z" fill="#AE7461"/>
<path d="M132.542 125.336C132.456 125.71 132.299 126.063 132.078 126.376C131.911 126.719 131.68 127.027 131.397 127.284C131.523 126.926 131.697 126.588 131.916 126.279C132.081 125.938 132.292 125.62 132.542 125.336Z" fill="#6F4439"/>
<path d="M134.864 126.562C134.77 126.957 134.59 127.326 134.335 127.642C134.131 127.993 133.854 128.296 133.521 128.528C133.952 127.863 134.4 127.208 134.864 126.566V126.562Z" fill="#6F4439"/>
<path d="M110.741 141.258H104.833L103.321 162.743H109.247C110.255 159.47 112.775 142.421 112.775 142.421L110.741 141.258Z" fill="#263238"/>
<path d="M77.2857 141.258C77.2857 141.258 73.5021 150.125 73.8801 153.714C74.2581 157.303 76.3821 162.743 76.3821 162.743H105.643C106.261 160.295 106.742 157.814 107.083 155.312C107.716 150.877 109.416 141.272 109.416 141.272L77.2857 141.258Z" fill="#263238"/>
<path d="M115.95 55.6854C114.96 54.4362 113.739 53.2374 113.487 51.6642C113.253 50.2242 113.887 48.6402 113.239 47.3442C112.44 45.7278 110.15 45.4146 109.156 43.9134C108.678 43.1934 108.562 42.2646 108.076 41.5338C107.27 40.2882 105.607 39.8886 104.116 39.9714C102.626 40.0542 101.208 40.515 99.7208 40.5654C97.6832 40.6086 95.6204 39.8454 93.644 40.3314C91.4624 40.8678 90.044 42.7074 88.5644 44.4822L86.6348 46.5306C86.2453 46.8812 85.8221 47.1923 85.3712 47.4594C84.5792 47.9166 83.6864 48.2154 82.9952 48.8166C81.5156 50.1018 81.5084 52.7118 82.9952 54.0042C82.2039 54.2346 81.5076 54.7129 81.0086 55.3688C80.5095 56.0246 80.2342 56.8233 80.2232 57.6474C80.2232 58.551 80.5832 59.415 80.792 60.2898C81.0008 61.1646 81.152 62.133 80.738 62.943C80.324 63.753 79.2512 64.2678 78.4844 63.789C78.6005 64.3805 78.8468 64.9387 79.2055 65.4231C79.5641 65.9076 80.0261 66.3061 80.558 66.5898C80.1064 67.0067 79.513 67.2359 78.8984 67.2306C80.36 71.1906 84.7412 73.4262 88.9424 73.6494C93.1436 73.8726 97.244 72.4686 101.218 71.0862L112.677 68.685C113.682 68.505 114.153 67.317 114.186 66.2946C114.218 65.2722 114.013 64.203 114.423 63.267C114.981 61.9854 116.533 61.3662 117.116 60.0918C117.764 58.6302 116.936 56.9418 115.95 55.6854Z" fill="#263238"/>
<path d="M88.6839 64.7534C87.9855 62.1578 87.2979 59.5442 87.0567 56.8658C86.8155 54.1874 87.0567 51.4226 88.1007 48.9458C88.2627 48.5858 89.6055 46.0658 90.0087 46.1342C90.2967 46.1774 89.4291 48.5282 89.5623 48.7874C90.8367 51.257 91.0671 54.1622 90.6999 56.9198C90.3208 59.5954 89.6446 62.2204 88.6839 64.7462" fill="#263238"/>
<path d="M88.946 54.4907C89.072 47.7479 93.104 42.2039 99.8396 42.5207L100.459 42.5855C103.473 42.8997 106.258 44.3378 108.26 46.6135C110.261 48.8892 111.332 51.8354 111.259 54.8651C111.115 60.7079 110.899 67.1627 110.517 70.2659C109.758 76.6919 103.216 77.0159 103.216 77.0159L103.04 87.6287L87.7256 77.0195L88.946 54.4907Z" fill="#FFBE9D"/>
<path d="M103.206 77.0151C100.236 76.6933 97.4204 75.5278 95.0918 73.6562C95.0918 73.6562 96.6002 79.0922 103.08 79.1894L103.206 77.0151Z" fill="#EB996E"/>
<path d="M109.02 59.8563C108.997 60.0961 108.88 60.3171 108.696 60.4724C108.512 60.6277 108.274 60.7051 108.034 60.6879C107.916 60.6852 107.8 60.6588 107.693 60.6103C107.585 60.5617 107.488 60.492 107.409 60.4054C107.329 60.3187 107.267 60.2168 107.227 60.1058C107.187 59.9948 107.17 59.8769 107.177 59.7591C107.2 59.5194 107.316 59.298 107.499 59.1421C107.683 58.9861 107.92 58.9079 108.16 58.9239C108.278 58.9276 108.394 58.9548 108.502 59.0039C108.609 59.0529 108.706 59.1229 108.786 59.2097C108.866 59.2965 108.928 59.3984 108.968 59.5094C109.008 59.6204 109.026 59.7384 109.02 59.8563Z" fill="#263238"/>
<path d="M109.593 57.3975C109.467 57.5055 108.826 56.9151 107.836 56.8143C106.846 56.7135 106.068 57.1311 105.975 56.9979C105.928 56.9403 106.068 56.7351 106.407 56.5371C106.866 56.2879 107.391 56.1849 107.911 56.2419C108.426 56.2937 108.911 56.5095 109.294 56.8575C109.575 57.1311 109.654 57.3507 109.593 57.3975Z" fill="#263238"/>
<path d="M100.081 59.8563C100.058 60.0958 99.9423 60.3168 99.7587 60.4722C99.575 60.6276 99.3379 60.705 99.098 60.6879C98.9799 60.6852 98.8636 60.6588 98.756 60.6103C98.6483 60.5618 98.5515 60.4922 98.4713 60.4056C98.391 60.3189 98.329 60.2171 98.2889 60.1061C98.2487 59.995 98.2313 59.877 98.2376 59.7591C98.2605 59.5194 98.3759 59.298 98.5595 59.1421C98.743 58.9861 98.9801 58.9079 99.2204 58.9239C99.3384 58.9276 99.4546 58.9548 99.562 59.0039C99.6694 59.0529 99.766 59.1229 99.8461 59.2097C99.9262 59.2965 99.9882 59.3984 100.029 59.5094C100.069 59.6204 100.087 59.7384 100.081 59.8563Z" fill="#263238"/>
<path d="M99.8652 56.7697C99.7392 56.8777 99.0948 56.2909 98.1048 56.1901C97.1148 56.0893 96.3408 56.5069 96.2472 56.3737C96.2004 56.3125 96.3372 56.1109 96.6792 55.9129C97.1384 55.6619 97.664 55.5588 98.184 55.6177C98.698 55.67 99.1821 55.8843 99.5664 56.2297C99.8436 56.4997 99.9264 56.7265 99.8652 56.7697Z" fill="#263238"/>
<path d="M102.601 64.7484C102.601 64.6908 103.227 64.6512 104.235 64.626C104.491 64.626 104.735 64.6044 104.797 64.4352C104.845 64.1764 104.813 63.9091 104.707 63.6684C104.534 63.03 104.353 62.3628 104.163 61.6668C103.414 58.8192 102.899 56.49 103.015 56.4612C103.13 56.4324 103.832 58.7148 104.577 61.5624C104.757 62.2632 104.927 62.9328 105.088 63.5712C105.218 63.8917 105.228 64.2482 105.117 64.5756C105.071 64.6611 105.007 64.7351 104.928 64.7919C104.849 64.8486 104.759 64.8867 104.663 64.9032C104.519 64.9224 104.372 64.9224 104.228 64.9032C103.231 64.8672 102.601 64.806 102.601 64.7484Z" fill="#263238"/>
<path d="M99.6272 65.1256C99.7892 65.1256 99.6776 66.2056 100.516 67.0624C101.355 67.9192 102.511 67.9264 102.504 68.0776C102.504 68.146 102.226 68.2576 101.74 68.2216C101.111 68.1624 100.523 67.8847 100.077 67.4368C99.6512 67.0042 99.4087 66.4238 99.4004 65.8168C99.4076 65.3632 99.5552 65.1112 99.6272 65.1256Z" fill="#263238"/>
<path d="M100.232 52.7521C100.106 53.0113 99.1344 52.7809 97.9572 52.7989C96.78 52.8169 95.7971 53.0329 95.6819 52.7737C95.6279 52.6513 95.8151 52.4137 96.2219 52.1977C96.7606 51.9319 97.3527 51.7922 97.9533 51.7891C98.5539 51.786 99.1474 51.9195 99.6888 52.1797C100.081 52.3957 100.29 52.6297 100.232 52.7521Z" fill="#263238"/>
<path d="M109.531 54.064C109.333 54.2692 108.674 53.9632 107.857 53.866C107.04 53.7688 106.331 53.866 106.194 53.6068C106.136 53.4844 106.269 53.272 106.593 53.092C107.027 52.8802 107.514 52.8013 107.992 52.8654C108.471 52.9295 108.92 53.1336 109.283 53.452C109.549 53.722 109.617 53.9632 109.531 54.064Z" fill="#263238"/>
<path d="M88.9675 59.3139C88.8631 59.2563 84.6835 57.539 84.3595 61.9526C84.0355 66.3662 88.5355 65.7687 88.5607 65.6571C88.5859 65.5455 88.9675 59.3139 88.9675 59.3139Z" fill="#FFBE9D"/>
<path d="M87.3267 63.8899C87.3267 63.8719 87.2475 63.9367 87.1143 63.9871C86.9252 64.0506 86.719 64.039 86.5383 63.9547C86.0847 63.7531 85.7463 62.9827 85.7823 62.1835C85.7993 61.8061 85.9001 61.4371 86.0775 61.1035C86.1293 60.9687 86.213 60.8486 86.3215 60.7532C86.43 60.6579 86.5599 60.5904 86.7003 60.5563C86.7901 60.5394 86.8829 60.5547 86.9626 60.5995C87.0422 60.6442 87.1036 60.7156 87.1359 60.8011C87.1863 60.9271 87.1539 61.0135 87.1755 61.0243C87.1971 61.0351 87.2763 60.9559 87.2547 60.7723C87.2378 60.6603 87.1832 60.5574 87.0999 60.4807C86.9845 60.3805 86.8348 60.3289 86.6823 60.3367C86.4982 60.3591 86.3231 60.4285 86.1737 60.5382C86.0242 60.6479 85.9056 60.7943 85.8291 60.9631C85.6143 61.3318 85.4909 61.7466 85.4691 62.1727C85.4331 63.0655 85.8291 63.9331 86.4519 64.1635C86.569 64.2079 86.6946 64.2251 86.8193 64.2138C86.944 64.2026 87.0646 64.1633 87.1719 64.0987C87.3123 63.9943 87.3411 63.8971 87.3267 63.8899Z" fill="#EB996E"/>
<path d="M108.862 47.3703C109.604 47.0103 107.606 44.5695 105.903 43.6587C103.325 42.2835 99.3183 41.2827 96.8271 41.8191C93.8247 42.4635 91.2832 43.7739 89.6272 46.3587C87.9712 48.9435 87.2188 52.0359 87.1072 55.1031C87.0712 56.0391 87.1071 57.0183 87.5535 57.8427C88.1079 58.8579 89.2527 59.5491 89.1123 60.8919C89.0788 61.1341 89.0934 61.3806 89.1552 61.6172C89.2169 61.8537 89.3247 62.0758 89.4723 62.2707C90.2247 63.1815 91.2723 62.4363 91.7727 61.6587C92.8527 59.9883 93.0939 57.9327 93.3063 55.9563C93.4575 54.5523 93.6087 53.1159 93.3063 51.7371C93.1371 50.9883 92.8347 50.2683 92.7087 49.5123C92.6218 49.137 92.6174 48.7472 92.6957 48.3699C92.774 47.9927 92.9332 47.6369 93.1623 47.3271C93.2779 47.1954 93.4057 47.0748 93.5439 46.9671C94.1947 46.4695 94.966 46.1539 95.779 46.0527C96.5919 45.9515 97.4171 46.0683 98.17 46.3911C100.6 47.4315 104.762 49.0191 105.928 48.2487C107.602 47.1363 108.034 46.3695 108.034 46.3695L108.862 47.3703Z" fill="#263238"/>
<path d="M97.0934 41.2318C99.5738 40.5766 102.335 40.7962 104.531 42.121C105.694 42.841 106.72 43.8958 107.004 45.2278C107.289 46.5598 106.626 48.1294 105.334 48.5614L105.244 48.6118C103.318 49.123 102.112 48.7918 100.276 48.0214C98.7278 47.3734 97.3958 46.3078 95.837 45.6634C94.1766 44.9807 92.3499 44.8102 90.5918 45.1738C92.4062 43.3594 94.6166 41.887 97.0934 41.2318Z" fill="#263238"/>
<path d="M98.2129 40.4612C98.3642 40.4589 98.5153 40.4746 98.6629 40.508C99.0676 40.5792 99.4652 40.6865 99.8509 40.8284C100.425 41.0417 100.971 41.3233 101.478 41.6672C102.105 42.0856 102.653 42.6108 103.098 43.2188C103.521 43.8434 103.822 44.5419 103.987 45.278C104.13 45.869 104.222 46.4712 104.261 47.078C104.297 47.5964 104.297 48.0176 104.293 48.3056C104.298 48.4563 104.288 48.6071 104.261 48.7556C104.231 48.6075 104.218 48.4566 104.221 48.3056C104.203 48.0176 104.182 47.5856 104.128 47.0888C104.07 46.4904 103.968 45.8971 103.822 45.314C103.651 44.602 103.353 43.9265 102.943 43.3196C102.513 42.7278 101.983 42.2151 101.377 41.804C100.886 41.4592 100.357 41.1717 99.8005 40.9472C99.2799 40.7581 98.75 40.5959 98.2129 40.4612Z" fill="#455A64"/>
<path d="M102.276 40.2109C102.407 40.231 102.535 40.266 102.658 40.3153C102.807 40.3603 102.952 40.4156 103.094 40.4809L103.644 40.7581C104.673 41.391 105.475 42.3338 105.934 43.4509C106.067 43.7662 106.175 44.0911 106.258 44.4229C106.329 44.7334 106.377 45.0486 106.402 45.3661C106.427 45.6522 106.433 45.9397 106.42 46.2265C106.402 46.4768 106.368 46.7257 106.319 46.9717C106.279 47.1749 106.224 47.3747 106.154 47.5693C106.107 47.717 106.048 47.8603 105.977 47.9977C105.924 48.1259 105.855 48.2468 105.772 48.3577C105.954 47.9072 106.094 47.4408 106.19 46.9645C106.227 46.726 106.253 46.4857 106.265 46.2445C106.27 45.9646 106.259 45.6845 106.233 45.4057C106.202 45.0981 106.151 44.7926 106.082 44.4913C105.995 44.1715 105.888 43.8576 105.761 43.5517C105.315 42.4685 104.554 41.5442 103.576 40.8985L103.047 40.5997C102.911 40.5281 102.772 40.4643 102.629 40.4089C102.503 40.3602 102.384 40.2935 102.276 40.2109Z" fill="#455A64"/>
<path d="M105.157 86.5641C105.157 87.1725 108.192 100.507 109.355 103.783C110.518 107.059 114.197 139.905 113.711 142.245C113.225 144.585 111.968 144.492 111.968 144.492C111.968 144.492 82.2396 142.62 79.0428 142.901C75.846 143.181 74.4924 143.088 73.7184 139.437C72.9444 135.787 73.74 116.819 73.0632 112.232C72.3864 107.646 72.3792 105.425 72.1164 98.6133C71.8896 92.7057 73.2324 87.9717 76.0404 84.5517C78.8484 81.1317 85.0656 77.6793 85.0656 77.6793L87.2724 74.4609L102.875 82.7157L103.235 80.8365L104.182 83.7597L105.157 86.5641Z" fill="#455A64"/>
<g opacity="0.3">
<path d="M111.863 127.215C111.601 126.553 110.758 126.384 110.063 126.308C103.45 125.588 96.5706 123.921 91.7394 119.349C89.853 117.549 88.3626 115.389 86.9262 113.229C83.787 108.484 80.8386 103.617 77.8902 98.75L75.6006 99.6104C77.0082 106.479 78.3906 111.451 80.6766 117.081C82.9626 122.712 84.741 128.176 90.537 130.02C94.2846 131.211 101.402 130.297 105.322 129.991C106.957 129.91 108.579 129.657 110.161 129.235C110.646 129.116 111.096 128.887 111.478 128.565C111.665 128.401 111.8 128.186 111.869 127.947C111.937 127.707 111.935 127.453 111.863 127.215Z" fill="black"/>
</g>
<path d="M74.7839 97.8076C74.9531 98.1136 88.1831 126.374 94.0907 127.536C99.9983 128.699 118.358 128.976 121.94 128.289C125.522 127.601 129.029 126.982 129.029 126.982C129.029 126.982 131.624 120.819 129.255 115.57L124.323 115.725C124.323 115.725 110.611 114.983 108.674 114.454C106.737 113.925 105.074 112.11 103.321 112.208L92.8811 87.9328C92.8811 87.9328 86.1023 81.6364 81.2603 83.5732C76.4183 85.51 73.3619 95.2876 74.7839 97.8076Z" fill="#455A64"/>
<path d="M124.705 127.973C124.719 127.812 124.752 127.652 124.802 127.498C124.882 127.196 124.979 126.757 125.08 126.213C125.18 125.669 125.278 125.014 125.342 124.283C125.405 123.491 125.422 122.695 125.393 121.9C125.328 120.457 125.104 119.025 124.723 117.631C124.576 117.094 124.442 116.666 124.338 116.371C124.279 116.22 124.233 116.065 124.201 115.906C124.284 116.045 124.353 116.192 124.406 116.345C124.575 116.753 124.723 117.168 124.849 117.591C125.269 118.989 125.511 120.435 125.569 121.893C125.598 122.695 125.576 123.498 125.504 124.298C125.44 124.95 125.338 125.598 125.198 126.238C125.109 126.67 124.996 127.097 124.86 127.516C124.822 127.673 124.77 127.826 124.705 127.973Z" fill="#263238"/>
<path d="M92.881 87.9375C92.881 87.9375 92.9494 88.0815 93.079 88.3659L93.6334 89.6331L95.761 94.4931C97.5826 98.7087 100.2 104.775 103.397 112.18L103.325 112.137C104.147 112.161 104.948 112.41 105.639 112.857C106.359 113.253 107.054 113.714 107.817 114.063C108.605 114.399 109.446 114.594 110.301 114.639C111.169 114.743 112.055 114.819 112.955 114.898C116.555 115.193 120.367 115.431 124.338 115.65L129.27 115.492H129.331L129.356 115.546C130.106 117.334 130.436 119.27 130.321 121.205C130.235 123.2 129.826 125.169 129.111 127.034V127.08H129.061L125.925 127.66L122.491 128.293C121.357 128.499 120.209 128.619 119.057 128.653C116.774 128.754 114.528 128.765 112.317 128.754C110.107 128.743 107.94 128.69 105.816 128.61C103.692 128.531 101.618 128.427 99.5914 128.272C98.5798 128.2 97.5826 128.103 96.5962 127.995C95.6262 127.901 94.6639 127.74 93.7162 127.512C93.2653 127.333 92.8422 127.091 92.4598 126.792C92.08 126.504 91.7192 126.191 91.3798 125.856C90.7278 125.205 90.1159 124.515 89.5474 123.79C87.5127 121.129 85.6558 118.336 83.989 115.431C80.8894 110.131 78.6502 105.693 77.113 102.626C76.3498 101.088 75.7702 99.8895 75.3814 99.0723C74.9926 98.2551 74.8018 97.8231 74.8018 97.8231C74.8018 97.8231 74.8594 97.9275 74.9602 98.1363C75.061 98.3451 75.2194 98.6547 75.4174 99.0579L77.1778 102.593C78.7366 105.649 80.9902 110.077 84.1042 115.362C85.7653 118.254 87.6149 121.033 89.641 123.682C90.206 124.401 90.8144 125.085 91.4626 125.73C91.7925 126.06 92.1436 126.368 92.5138 126.652C92.8836 126.942 93.2934 127.177 93.7306 127.35C94.6727 127.571 95.629 127.728 96.5926 127.818C97.5718 127.926 98.569 128.02 99.5806 128.092C101.6 128.243 103.677 128.351 105.798 128.427C107.918 128.502 110.089 128.553 112.278 128.563C114.467 128.574 116.731 128.563 119.006 128.459C120.15 128.423 121.289 128.303 122.415 128.099L125.846 127.466L128.985 126.886L128.913 126.944C129.62 125.1 130.025 123.155 130.112 121.184C130.218 119.275 129.887 117.368 129.144 115.607L129.23 115.661L124.298 115.816C120.338 115.589 116.515 115.351 112.911 115.049C112.011 114.97 111.111 114.891 110.255 114.786C109.815 114.736 109.383 114.682 108.955 114.599C108.528 114.52 108.114 114.383 107.724 114.192C106.946 113.832 106.248 113.368 105.535 112.976C104.868 112.545 104.096 112.305 103.303 112.281H103.253L103.231 112.234C100.059 104.814 97.471 98.7411 95.671 94.5219L93.601 89.6511L93.0646 88.3767C92.9494 88.0851 92.881 87.9375 92.881 87.9375Z" fill="#263238"/>
<path d="M91.5093 86.034C91.5093 86.034 91.3257 85.8648 90.9945 85.5588C90.5287 85.1302 90.0223 84.748 89.4825 84.4176C88.6829 83.9266 87.8174 83.5521 86.9121 83.3052C84.6823 82.6806 82.299 82.9197 80.2377 83.9748C79.3978 84.3937 78.6229 84.9321 77.9373 85.5732C77.4716 86.0089 77.0507 86.4901 76.6809 87.0096C76.5542 87.2051 76.4172 87.3938 76.2705 87.5748C76.2911 87.5175 76.319 87.4631 76.3533 87.4128C76.4145 87.312 76.4901 87.1536 76.6197 86.9664C76.9739 86.4322 77.3856 85.9385 77.8473 85.494C79.3764 84.0009 81.3676 83.0719 83.4942 82.8593C85.6208 82.6467 87.7565 83.1631 89.5509 84.324C90.0929 84.6668 90.5942 85.0702 91.0449 85.5264C91.1713 85.6474 91.2914 85.7748 91.4049 85.908C91.4447 85.9456 91.4797 85.9879 91.5093 86.034Z" fill="#263238"/>
<path d="M103.282 112.234C103.121 112.937 102.898 113.623 102.616 114.286C102.391 114.97 102.109 115.634 101.773 116.27C101.934 115.569 102.157 114.883 102.439 114.222C102.664 113.537 102.945 112.872 103.282 112.234Z" fill="#263238"/>
<path d="M127.25 116.886C127.25 116.886 127.301 116.861 127.387 116.886C127.504 116.937 127.597 117.029 127.65 117.145C127.699 117.231 127.725 117.327 127.725 117.426C127.725 117.525 127.699 117.621 127.65 117.707C127.584 117.809 127.491 117.891 127.38 117.942C127.27 117.993 127.147 118.011 127.027 117.995C126.906 117.969 126.796 117.907 126.712 117.817C126.627 117.727 126.573 117.613 126.555 117.491C126.538 117.395 126.545 117.295 126.576 117.203C126.608 117.11 126.663 117.027 126.735 116.962C126.784 116.918 126.841 116.886 126.903 116.866C126.965 116.846 127.031 116.839 127.095 116.846C127.182 116.846 127.225 116.875 127.221 116.886C127.218 116.897 127.013 116.886 126.833 117.055C126.786 117.11 126.752 117.175 126.735 117.245C126.717 117.315 126.716 117.388 126.732 117.458C126.746 117.544 126.785 117.623 126.844 117.687C126.903 117.751 126.979 117.797 127.063 117.818C127.15 117.828 127.237 117.814 127.317 117.779C127.397 117.743 127.466 117.687 127.517 117.617C127.555 117.556 127.578 117.487 127.583 117.416C127.589 117.344 127.577 117.272 127.549 117.206C127.441 116.947 127.243 116.911 127.25 116.886Z" fill="#263238"/>
<path d="M103.249 83.657C103.124 83.6064 103.003 83.5449 102.889 83.4734L101.902 82.9082L101.974 82.8794C101.78 83.8622 101.589 85.3094 101.254 87.0446L101.229 87.1598L101.132 87.0986C99.6919 86.1842 97.9423 85.1402 96.0919 84.0206C94.7095 83.1926 93.4171 82.3574 92.2291 81.6374C91.0411 80.9174 89.9359 80.2982 89.0179 79.7834L86.8327 78.5666L86.2387 78.2354C86.1693 78.197 86.102 78.1549 86.0371 78.1094C86.1141 78.1308 86.1879 78.1623 86.2567 78.203L86.8651 78.5054C87.3943 78.7718 88.1503 79.1642 89.0827 79.6682C90.0151 80.1722 91.1131 80.777 92.3227 81.4682L96.1963 83.8442C98.0503 84.9638 99.7963 86.0042 101.236 86.9438L101.114 86.9942C101.456 85.2734 101.668 83.8226 101.892 82.8434V82.7786L101.949 82.811L102.91 83.4122C103.03 83.4844 103.143 83.5662 103.249 83.657Z" fill="#263238"/>
<g opacity="0.3">
<path d="M88.2393 79.2734L96.3825 85.343C98.1825 86.6786 100.008 88.0358 102.142 88.7162L102.016 83.0498L101.185 87.0098L88.2393 79.2734Z" fill="black"/>
</g>
<path d="M172.081 50.9296C171.364 51.0263 170.636 50.8531 170.039 50.4434C169.442 50.0338 169.019 49.417 168.851 48.7127C168.683 48.0085 168.783 47.267 169.131 46.6322C169.479 45.9974 170.051 45.5146 170.735 45.2776C170.282 44.8291 169.982 44.2496 169.876 43.621C169.771 42.9923 169.866 42.3465 170.148 41.7748C170.429 41.2031 170.884 40.7346 171.447 40.4354C172.01 40.1363 172.652 40.0217 173.284 40.108C173.297 39.4797 173.474 38.8658 173.796 38.3262C174.118 37.7865 174.574 37.3396 175.12 37.0291C175.667 36.7186 176.284 36.5551 176.912 36.5547C177.541 36.5542 178.159 36.7167 178.705 37.0264C179.402 36.4347 180.278 36.0937 181.191 36.0578C182.105 36.022 183.004 36.2932 183.745 36.8284C184.355 36.7032 184.989 36.7772 185.554 37.0396C186.118 37.3019 186.584 37.7386 186.881 38.2854C187.179 38.8322 187.293 39.4602 187.207 40.0767C187.12 40.6933 186.838 41.2658 186.402 41.71" fill="#263238"/>
<path d="M171.674 51.3497C171.861 48.2431 173.211 45.3209 175.455 43.1644C177.699 41.0078 180.673 39.7749 183.784 39.7109H184.425C191.348 39.9737 194.991 46.0001 194.538 52.9085L194.948 77.5685L178.129 83.5949L177.981 74.7137C177.981 74.7137 171.314 73.8173 171.098 67.1537C171.001 63.9713 171.314 57.3401 171.674 51.3497Z" fill="#AE7461"/>
<path d="M177.928 74.7018C181.009 74.6381 184.008 73.6924 186.568 71.9766C186.568 71.9766 184.617 76.8006 177.975 76.3362L177.928 74.7018Z" fill="#6F4439"/>
<path d="M173.543 57.3564C173.546 57.6035 173.645 57.8398 173.819 58.0152C173.993 58.1906 174.228 58.2913 174.475 58.296C174.597 58.3033 174.718 58.2861 174.832 58.2456C174.947 58.2051 175.052 58.142 175.142 58.0601C175.231 57.9782 175.304 57.8791 175.354 57.7687C175.405 57.6584 175.433 57.539 175.437 57.4176C175.434 57.1705 175.335 56.9342 175.161 56.7588C174.987 56.5834 174.751 56.4827 174.504 56.478C174.383 56.4712 174.262 56.4887 174.148 56.5294C174.033 56.5701 173.928 56.6332 173.839 56.715C173.749 56.7968 173.677 56.8957 173.626 57.0059C173.575 57.116 173.547 57.2352 173.543 57.3564Z" fill="#263238"/>
<path d="M173.162 54.566C173.281 54.6884 173.99 54.1412 175.009 54.1232C176.027 54.1052 176.791 54.5984 176.899 54.4832C176.949 54.4256 176.827 54.206 176.495 53.9756C176.047 53.6778 175.518 53.5257 174.98 53.54C174.449 53.5502 173.935 53.7279 173.511 54.0476C173.212 54.2852 173.111 54.512 173.162 54.566Z" fill="#263238"/>
<path d="M182.845 57.3562C182.848 57.6036 182.947 57.84 183.122 58.0149C183.297 58.1899 183.533 58.2894 183.781 58.2922C183.902 58.2995 184.023 58.2825 184.137 58.2422C184.251 58.2019 184.356 58.1391 184.446 58.0576C184.535 57.976 184.608 57.8774 184.659 57.7674C184.71 57.6575 184.738 57.5385 184.742 57.4174C184.738 57.17 184.639 56.9337 184.464 56.7583C184.289 56.583 184.053 56.4824 183.806 56.4778C183.685 56.4715 183.564 56.4893 183.45 56.5302C183.336 56.5711 183.231 56.6342 183.142 56.716C183.052 56.7977 182.98 56.8964 182.929 57.0063C182.878 57.1162 182.849 57.2351 182.845 57.3562Z" fill="#263238"/>
<path d="M183.212 54.558C183.331 54.6804 184.04 54.1332 185.059 54.1152C186.078 54.0972 186.859 54.5904 186.949 54.4752C187.003 54.4176 186.877 54.198 186.546 53.9676C186.101 53.6715 185.575 53.5194 185.041 53.532C184.51 53.5422 183.996 53.7199 183.572 54.0396C183.241 54.2772 183.151 54.504 183.212 54.558Z" fill="#263238"/>
<path d="M179.659 62.202C179.659 62.1444 179.025 62.0472 177.996 61.9392C177.733 61.9176 177.484 61.8708 177.438 61.6944C177.411 61.4252 177.466 61.1542 177.596 60.9168C177.83 60.2796 178.071 59.6136 178.316 58.9152C179.331 56.0676 180.058 53.7276 179.943 53.688C179.828 53.6484 178.914 55.9236 177.898 58.7712C177.658 59.472 177.426 60.1428 177.2 60.7836C177.043 61.1018 177.004 61.4651 177.088 61.8096C177.129 61.8985 177.19 61.977 177.265 62.0393C177.341 62.1016 177.429 62.1462 177.524 62.1696C177.669 62.2055 177.818 62.2225 177.967 62.22C179.014 62.2704 179.641 62.2632 179.659 62.202Z" fill="#263238"/>
<path d="M182.831 51.0836C182.971 51.3392 183.839 51.0404 184.915 50.9864C185.991 50.9324 186.902 51.0872 186.996 50.8172C187.035 50.6876 186.841 50.4572 186.449 50.2592C185.943 50.0197 185.384 49.9143 184.825 49.9532C184.272 49.9828 183.736 50.1593 183.273 50.4644C182.921 50.7092 182.769 50.9612 182.831 51.0836Z" fill="#263238"/>
<path d="M172.974 50.9533C173.194 51.1837 174.029 50.9245 175.044 50.8921C176.059 50.8597 176.92 51.0109 177.11 50.7625C177.197 50.6437 177.056 50.4025 176.675 50.2045C176.151 49.9489 175.571 49.8287 174.989 49.8551C174.406 49.8816 173.84 50.0537 173.341 50.3557C172.988 50.6041 172.877 50.8453 172.974 50.9533Z" fill="#263238"/>
<path d="M172.254 48.2905C172.254 48.2905 173.92 44.0929 175.908 43.0813C178.312 41.8573 179.41 44.4997 181.714 43.8013C184.018 43.1029 186.312 41.9329 188.713 43.6753C191.344 45.5797 190.153 46.9801 190.376 49.9249C191.269 61.8661 193.522 65.1997 194.026 59.5585C194.084 58.9393 195.787 58.4137 195.985 55.8037C196.248 52.4161 196.291 48.3121 195.488 45.9289C194.811 43.9201 193.63 42.5449 191.528 41.0473C188.216 38.6857 183.734 38.7253 180.699 39.0925C177.664 39.4597 171.868 43.0921 172.254 48.2905Z" fill="#263238"/>
<path d="M193.603 59.3834C193.605 59.1392 193.657 58.898 193.756 58.6745C193.855 58.4511 193.998 58.2501 194.177 58.0837C194.355 57.9173 194.566 57.7891 194.796 57.7068C195.026 57.6245 195.27 57.5899 195.514 57.605C196.756 57.6986 198.149 58.3718 198.121 60.935C198.067 65.4818 193.513 64.4918 193.505 64.3622C193.498 64.2326 193.563 61.2842 193.603 59.3834Z" fill="#AE7461"/>
<path d="M194.517 62.6694C194.517 62.6694 194.596 62.7234 194.729 62.7882C194.919 62.8647 195.13 62.8647 195.32 62.7882C195.802 62.619 196.216 61.8594 196.245 61.0422C196.262 60.6521 196.191 60.2631 196.036 59.9046C195.996 59.762 195.921 59.6314 195.819 59.5241C195.717 59.4169 195.59 59.3362 195.449 59.289C195.358 59.2643 195.261 59.2719 195.175 59.3106C195.089 59.3494 195.019 59.4168 194.978 59.5014C194.916 59.6274 194.945 59.721 194.92 59.7282C194.895 59.7354 194.823 59.649 194.862 59.4618C194.89 59.35 194.955 59.2509 195.046 59.181C195.108 59.1337 195.179 59.0994 195.254 59.0802C195.33 59.0611 195.408 59.0574 195.485 59.0694C195.672 59.109 195.845 59.1961 195.988 59.3222C196.131 59.4483 196.24 59.6093 196.302 59.7894C196.491 60.1857 196.58 60.6219 196.562 61.0602C196.522 61.9746 196.043 62.8278 195.384 63.0114C195.262 63.0443 195.134 63.0498 195.01 63.0274C194.885 63.0049 194.767 62.9553 194.664 62.8818C194.524 62.7774 194.499 62.6766 194.517 62.6694Z" fill="#6F4439"/>
<path d="M193.321 50.5907C192.774 51.0537 192.119 51.3719 191.417 51.5159C190.697 51.6023 189.887 51.2099 189.75 50.5079C189.692 50.1911 189.75 49.8239 189.548 49.5827C189.347 49.3415 188.828 49.3991 188.468 49.4459C187.805 49.5121 187.14 49.3477 186.583 48.9805C186.027 48.6133 185.615 48.0657 185.415 47.4299C185.091 47.9411 184.303 47.9339 183.788 47.6171C183.273 47.3003 182.931 46.7675 182.525 46.3175C182.118 45.8675 181.545 45.4715 180.948 45.5687C180.613 45.6227 180.303 45.8315 179.965 45.8063C179.367 45.7667 179.061 45.0863 178.961 44.4851C178.86 43.8839 178.773 43.2035 178.262 42.8939C177.751 42.5843 177.182 42.7895 176.635 42.8939C176.088 42.9983 175.375 42.8723 175.224 42.3395C175.197 42.196 175.2 42.0487 175.233 41.9064C175.265 41.7641 175.325 41.6297 175.411 41.5115C175.768 40.954 176.303 40.5335 176.929 40.3185C177.555 40.1035 178.236 40.1065 178.86 40.3271C179.068 39.5663 179.497 38.8842 180.093 38.3671C180.688 37.85 181.424 37.5212 182.207 37.4222C182.989 37.3232 183.783 37.4584 184.489 37.8108C185.195 38.1632 185.78 38.7169 186.171 39.4019C186.646 38.9553 187.221 38.6296 187.847 38.4523C188.474 38.275 189.135 38.2514 189.773 38.3835C190.41 38.5156 191.007 38.7995 191.512 39.2112C192.017 39.6228 192.415 40.1501 192.673 40.7483C193.226 40.5908 193.814 40.5994 194.362 40.7731C194.911 40.9468 195.396 41.2779 195.758 41.7252C196.119 42.1725 196.342 42.7163 196.397 43.289C196.452 43.8616 196.338 44.4378 196.068 44.9459C196.892 45.3959 197.609 46.1951 197.645 47.1347C197.681 48.0743 196.784 49.0283 195.87 48.8015C196.067 49.1684 196.116 49.5971 196.007 49.999C195.897 50.401 195.637 50.7453 195.28 50.9608C194.924 51.1764 194.498 51.2465 194.091 51.1569C193.684 51.0672 193.327 50.8246 193.094 50.4791" fill="#263238"/>
<path d="M178.561 41.6484C178.555 41.6758 178.555 41.7039 178.561 41.7312C178.561 41.7852 178.561 41.868 178.593 41.9724C178.664 42.2797 178.786 42.5729 178.953 42.84C179.211 43.2657 179.564 43.6265 179.983 43.8948C180.536 44.2599 181.194 44.4332 181.855 44.388L181.776 44.2872C181.646 44.7036 181.688 45.1542 181.891 45.54C182.102 45.9449 182.373 46.3162 182.694 46.6416C182.847 46.8305 183.021 47.0019 183.212 47.1528C183.427 47.2952 183.675 47.3818 183.932 47.4048C184.199 47.437 184.469 47.4037 184.72 47.3077C184.971 47.2117 185.195 47.056 185.372 46.854L185.203 46.8072C185.275 47.2783 185.446 47.7289 185.703 48.1301C185.96 48.5312 186.299 48.874 186.697 49.1364C187.135 49.4473 187.661 49.6077 188.198 49.5936C188.702 49.5581 189.197 49.4363 189.66 49.2336L189.537 49.1832C189.784 49.7281 190.164 50.2022 190.642 50.562C190.861 50.7459 191.118 50.8783 191.395 50.9494C191.672 51.0204 191.961 51.0283 192.241 50.9724C192.716 50.8602 193.148 50.6112 193.483 50.2561C193.819 49.901 194.042 49.4554 194.127 48.9744L194.026 49.0248C194.51 49.2705 195.063 49.3405 195.592 49.2228C195.988 49.1425 196.358 48.9685 196.672 48.7152C196.869 48.5568 197.037 48.3656 197.169 48.15C197.215 48.0754 197.253 47.9957 197.281 47.9124C197.109 48.1972 196.887 48.4484 196.626 48.654C196.317 48.8887 195.956 49.0466 195.574 49.1148C195.071 49.2153 194.549 49.1403 194.095 48.9024L194.008 48.8556V48.9528C193.92 49.4027 193.703 49.8172 193.384 50.1457C193.064 50.4743 192.656 50.7028 192.208 50.8032C191.955 50.8513 191.695 50.8423 191.446 50.7769C191.197 50.7115 190.965 50.5914 190.768 50.4252C190.318 50.0822 189.962 49.6316 189.732 49.1148L189.696 49.032L189.609 49.0644C189.165 49.255 188.691 49.3683 188.209 49.3992C187.713 49.4125 187.226 49.2634 186.823 48.9744C186.449 48.7267 186.13 48.4039 185.887 48.0265C185.644 47.6491 185.482 47.2253 185.412 46.782L185.379 46.566L185.239 46.7352C185.081 46.9143 184.881 47.0523 184.658 47.1376C184.435 47.2228 184.194 47.2528 183.957 47.2248C183.729 47.205 183.509 47.1296 183.316 47.0052C183.137 46.8634 182.973 46.7029 182.827 46.5264C182.516 46.215 182.253 45.8596 182.046 45.4716C181.951 45.301 181.891 45.113 181.87 44.9188C181.849 44.7247 181.867 44.5283 181.923 44.3412L181.959 44.2296H181.844C181.212 44.2802 180.58 44.1248 180.044 43.7868C179.634 43.534 179.285 43.1934 179.022 42.7896C178.802 42.4391 178.646 42.0529 178.561 41.6484Z" fill="#455A64"/>
<path d="M183.179 62.5564C183.017 62.5744 183.204 63.6364 182.423 64.5688C181.642 65.5012 180.479 65.5768 180.497 65.728C180.497 65.7964 180.789 65.89 181.271 65.818C181.901 65.7151 182.475 65.394 182.891 64.9108C183.285 64.4503 183.487 63.8563 183.456 63.2512C183.417 62.7832 183.24 62.5312 183.179 62.5564Z" fill="#263238"/>
<path d="M146.057 114.253C146.633 114.023 165.659 111.733 165.659 111.733L173.377 105.195L172.657 124.117L148.364 126.457L146.057 114.253Z" fill="#FF3366"/>
<path opacity="0.3" d="M169.964 108.094C169.733 108.209 167.825 109.894 167.825 109.894L168.408 124.463L169.964 108.094Z" fill="black"/>
<path d="M202.379 142.352H170.245C170.245 142.352 171.944 151.42 172.574 155.596C172.928 158.011 173.446 160.398 174.126 162.742H203.232C203.232 162.742 205.392 157.475 205.784 154.102C206.177 150.729 202.379 142.352 202.379 142.352Z" fill="#263238"/>
<path d="M167.851 143.445C167.851 143.445 166.951 153.781 167.851 162.741H178.982V154.487L167.851 143.445Z" fill="#263238"/>
<path d="M174.036 92.7716L177.499 85.2116L177.928 80.5316C177.928 80.5316 184.57 76.3556 187.72 74.7716C190.126 73.6268 192.598 72.6231 195.121 71.7656V76.1864L174.036 92.7716Z" fill="#EBEBEB"/>
<path d="M202.98 131.516C202.98 131.516 204.863 106.237 204.989 104.358C204.989 104.358 206.101 90.8506 203.703 85.7098C201.306 80.569 195.938 76.0437 195.938 76.0437L195.441 73.3438L184.962 79.9534L180.116 84.1654C178.452 85.9441 176.923 87.8454 175.544 89.8533C174.169 91.7577 172.639 94.2058 171.944 97.2838C171.696 98.4106 168.812 111.867 168.726 121.245C168.726 121.245 168.283 129.432 167.808 134.065C167.225 139.803 166.332 152.882 166.526 160.629L200.521 159.593C208.916 158.311 207.44 157.476 207.44 157.476L202.98 131.516Z" fill="#FF3366"/>
<path d="M195.121 76.1875L194.887 76.2955L194.192 76.5835C193.897 76.7275 193.537 76.9147 193.112 77.1343C192.687 77.3539 192.223 77.6455 191.722 78.0019C188.942 79.9626 186.433 82.2818 184.259 84.8995L184.241 84.9247H184.213L180.951 85.5259L181.023 85.4431C180.973 86.9587 180.919 88.5463 180.861 90.1915V90.2275L180.832 90.2563C179.099 91.8791 177.497 93.6366 176.041 95.5123C175.435 96.2989 174.886 97.1278 174.399 97.9927L174.219 98.3131L174.086 98.6479C173.99 98.8686 173.907 99.0946 173.837 99.3247C173.693 99.7855 173.549 100.243 173.431 100.704C172.93 102.54 172.513 104.332 172.124 106.039C171.353 109.455 170.709 112.544 170.173 115.136C169.093 120.327 168.506 123.549 168.506 123.549C168.521 123.351 168.546 123.154 168.581 122.959C168.639 122.574 168.736 122.005 168.866 121.274C169.132 119.816 169.528 117.71 170.043 115.111C170.558 112.511 171.191 109.423 171.958 106.003C172.34 104.293 172.754 102.5 173.254 100.657C173.373 100.192 173.517 99.7315 173.665 99.2671C173.734 99.0321 173.817 98.8013 173.913 98.5759L174.053 98.2159L174.233 97.8883C174.724 97.0085 175.278 96.1662 175.893 95.3683C177.361 93.4952 178.976 91.7414 180.721 90.1231L180.692 90.1879C180.749 88.5427 180.807 86.9479 180.861 85.4395V85.3711H180.929L184.191 84.7807L184.144 84.8095C186.332 82.1874 188.867 79.8754 191.679 77.9371C192.183 77.5771 192.676 77.3287 193.087 77.0839C193.497 76.8391 193.879 76.6879 194.167 76.5511L194.869 76.2811L195.121 76.1875Z" fill="#263238"/>
<path d="M183.709 96.1603L184.12 129.889L178.982 162.742H192.522C192.522 162.742 198.678 137.798 200.111 132.556C201.5 127.466 203.588 101.845 203.772 100.588C203.844 100.095 205.313 91.2283 200.989 87.0703" fill="#FF3366"/>
<path d="M200.99 87.0703C200.99 87.0703 201.091 87.1639 201.274 87.3511C201.543 87.6361 201.791 87.9405 202.016 88.2619C202.849 89.5181 203.423 90.9281 203.704 92.4091C204.157 94.7539 204.245 97.1547 203.963 99.5263C203.758 100.905 203.657 102.385 203.51 103.958C203.362 105.531 203.215 107.198 203.056 108.937C202.732 112.429 202.369 116.256 201.929 120.36C201.703 122.408 201.469 124.532 201.177 126.714C200.926 128.965 200.528 131.199 199.985 133.399C197.721 142.399 195.233 152.328 192.616 162.753V162.825H178.875V162.721C180.776 150.603 182.533 139.418 184.03 129.871C183.922 119.658 183.832 111.226 183.767 105.344C183.742 102.406 183.721 100.11 183.706 98.5363C183.706 97.7587 183.706 97.1611 183.706 96.7363C183.706 96.3115 183.706 96.1279 183.706 96.1279C183.706 96.1279 183.706 96.3331 183.728 96.7363C183.749 97.1395 183.746 97.7443 183.76 98.5363C183.782 100.106 183.818 102.406 183.865 105.344C183.94 111.226 184.055 119.658 184.192 129.871C182.702 139.422 180.952 150.607 179.069 162.728L178.979 162.62H192.519L192.429 162.688L199.816 133.338C200.359 131.145 200.758 128.919 201.011 126.674C201.303 124.496 201.541 122.372 201.771 120.324C202.217 116.223 202.588 112.404 202.923 108.908C203.086 107.161 203.241 105.501 203.387 103.929C203.542 102.363 203.65 100.866 203.855 99.4939C204.143 97.1335 204.068 94.7431 203.632 92.4055C203.36 90.9266 202.798 89.5161 201.98 88.2547C201.762 87.9318 201.522 87.625 201.26 87.3367C201.08 87.1747 200.99 87.0703 200.99 87.0703Z" fill="#263238"/>
<path d="M190.873 133.209C190.514 133.143 190.164 133.042 189.825 132.907C189.188 132.691 188.32 132.36 187.381 131.942C186.441 131.524 185.613 131.103 185.026 130.776C184.698 130.617 184.387 130.425 184.098 130.203C184.439 130.33 184.77 130.483 185.088 130.66C185.689 130.956 186.528 131.355 187.456 131.773C188.385 132.19 189.256 132.536 189.872 132.784C190.215 132.902 190.55 133.044 190.873 133.209Z" fill="#263238"/>
<path d="M167.69 135.445C167.686 135.416 167.686 135.387 167.69 135.359C167.69 135.287 167.69 135.204 167.69 135.099C167.69 134.858 167.718 134.527 167.744 134.106C167.798 133.231 167.877 131.989 167.974 130.459C168.183 127.381 168.478 123.129 168.896 118.442C169.313 113.755 169.788 109.511 170.181 106.451C170.375 104.921 170.541 103.682 170.667 102.829C170.728 102.415 170.778 102.087 170.814 101.846C170.832 101.745 170.847 101.663 170.858 101.594C170.86 101.564 170.868 101.535 170.879 101.508C170.879 101.508 170.879 101.537 170.879 101.594C170.879 101.652 170.879 101.749 170.854 101.853C170.829 102.095 170.789 102.422 170.742 102.84C170.638 103.711 170.494 104.949 170.314 106.469C169.954 109.532 169.5 113.769 169.083 118.457C168.665 123.144 168.363 127.395 168.111 130.47C167.988 131.996 167.888 133.235 167.819 134.113C167.783 134.531 167.751 134.862 167.729 135.103C167.729 135.207 167.711 135.29 167.704 135.359C167.704 135.388 167.699 135.417 167.69 135.445Z" fill="#263238"/>
<path d="M195.12 82.8129C194.774 81.8825 194.348 80.9839 193.846 80.1273C193.289 79.3047 192.664 78.5304 191.978 77.8125C192.233 77.9623 192.465 78.1491 192.665 78.3669C193.175 78.8655 193.625 79.4226 194.004 80.0265C194.385 80.6297 194.692 81.2763 194.919 81.9525C195.027 82.228 195.095 82.5178 195.12 82.8129Z" fill="#263238"/>
<path d="M171.221 124.724C171.256 124.8 171.268 124.885 171.253 124.968C171.23 125.201 171.125 125.417 170.958 125.58C170.833 125.706 170.675 125.794 170.503 125.833C170.33 125.873 170.149 125.863 169.982 125.804C169.783 125.735 169.608 125.61 169.478 125.444C169.341 125.261 169.27 125.038 169.277 124.81C169.277 124.527 169.367 124.252 169.536 124.025C169.619 123.917 169.728 123.832 169.853 123.777C169.982 123.73 170.076 123.705 170.184 123.672H170.209C170.441 123.665 170.669 123.731 170.861 123.86C171.005 123.966 171.111 124.116 171.163 124.288C171.219 124.427 171.239 124.578 171.221 124.727C171.196 124.727 171.178 124.569 171.073 124.324C171.016 124.178 170.915 124.052 170.785 123.964C170.611 123.863 170.41 123.815 170.209 123.827H170.234C170.137 123.863 170.011 123.899 169.921 123.935C169.826 123.982 169.743 124.051 169.68 124.137C169.541 124.334 169.466 124.569 169.464 124.81C169.461 124.991 169.514 125.169 169.618 125.317C169.721 125.466 169.869 125.578 170.04 125.638C170.179 125.691 170.33 125.705 170.476 125.678C170.622 125.651 170.758 125.583 170.868 125.483C171.025 125.346 171.135 125.162 171.181 124.958C171.214 124.81 171.203 124.727 171.221 124.724Z" fill="#263238"/>
<path d="M170.717 136.646C170.753 136.722 170.764 136.807 170.749 136.89C170.727 137.123 170.623 137.34 170.454 137.502C170.329 137.628 170.172 137.716 169.999 137.756C169.826 137.795 169.645 137.785 169.478 137.726C169.28 137.656 169.105 137.531 168.974 137.366C168.838 137.183 168.766 136.96 168.773 136.732C168.773 136.449 168.864 136.174 169.032 135.947C169.115 135.839 169.224 135.754 169.349 135.699C169.478 135.652 169.572 135.627 169.68 135.594H169.705C169.937 135.587 170.165 135.652 170.357 135.782C170.501 135.888 170.607 136.038 170.659 136.21C170.715 136.349 170.735 136.5 170.717 136.649C170.695 136.649 170.674 136.491 170.569 136.246C170.513 136.099 170.413 135.973 170.281 135.886C170.107 135.785 169.907 135.737 169.705 135.749H169.73C169.633 135.785 169.507 135.821 169.421 135.857C169.324 135.903 169.24 135.972 169.176 136.059C169.037 136.256 168.962 136.491 168.96 136.732C168.957 136.913 169.011 137.09 169.114 137.239C169.217 137.388 169.365 137.5 169.536 137.56C169.675 137.613 169.826 137.627 169.972 137.6C170.118 137.573 170.254 137.505 170.364 137.405C170.522 137.268 170.631 137.083 170.677 136.88C170.71 136.736 170.699 136.649 170.717 136.646Z" fill="#263238"/>
<path d="M199.466 85.0727C199.448 85.1051 199.002 84.8171 198.21 84.5147C197.742 84.3379 197.261 84.2018 196.77 84.1079C196.176 83.9975 195.573 83.9445 194.97 83.9495C194.365 83.9618 193.762 84.0317 193.17 84.1583C192.688 84.2669 192.216 84.4162 191.759 84.6047C190.977 84.9287 190.538 85.2275 190.517 85.1951C190.606 85.108 190.707 85.033 190.815 84.9719C190.93 84.8876 191.05 84.8118 191.175 84.7451C191.342 84.6487 191.514 84.561 191.69 84.4823C192.153 84.2725 192.636 84.1074 193.13 83.9891C194.336 83.6988 195.592 83.6816 196.806 83.9387C197.299 84.0454 197.781 84.1972 198.246 84.3923C198.424 84.4652 198.599 84.5481 198.768 84.6407C198.901 84.7023 199.028 84.7745 199.149 84.8567C199.264 84.9142 199.371 84.9869 199.466 85.0727Z" fill="#263238"/>
<g opacity="0.3">
<path d="M169.806 116.63C171.271 114.495 171.811 112.483 172.596 110.013C173.758 106.345 174.082 102.201 175.911 98.8135C176.991 96.8191 178.251 94.7743 180.123 93.4927C181.995 92.2111 182.218 90.6595 182.182 86.3719C183.489 86.3719 184.868 85.3783 185.03 85.2019C185.794 84.343 186.343 83.3153 186.632 82.2031C185.718 83.2003 184.191 84.8491 184.191 84.8491C184.191 84.8491 180.883 85.4647 180.93 85.4431C180.85 87.0919 180.847 88.5427 180.764 90.1915C180.764 90.1915 174.417 96.9271 173.924 98.2807C173.431 99.6343 169.806 116.63 169.806 116.63Z" fill="black"/>
</g>
<g opacity="0.3">
<path d="M193.372 158.673C201.418 143.448 203.916 123.429 203.452 104.359C203.452 104.359 201.144 127.54 200.363 131.518C199.582 135.496 193.372 158.673 193.372 158.673Z" fill="black"/>
</g>
<path d="M194.599 73.7344C194.545 73.7887 194.484 73.8359 194.419 73.8748L193.882 74.2348L191.881 75.5452L185.289 79.8112L182.441 81.6112L181.534 82.3312C181.247 82.5427 180.975 82.7749 180.721 83.026C180.22 83.5084 179.777 83.9764 179.378 84.4012L179.306 84.4768L179.266 84.3832L178.229 81.9712C178.118 81.7012 178.028 81.4816 177.956 81.3124C177.919 81.238 177.891 81.1594 177.873 81.0784C177.921 81.1466 177.961 81.2203 177.992 81.298C178.071 81.46 178.172 81.658 178.298 81.9388L179.378 84.3148L179.266 84.2968C179.659 83.8648 180.098 83.3896 180.598 82.9C180.853 82.6397 181.128 82.3991 181.419 82.18L182.323 81.46L185.167 79.6348L191.801 75.4264L193.825 74.1664L194.379 73.8352C194.449 73.7942 194.522 73.7604 194.599 73.7344Z" fill="#263238"/>
<path d="M25.3183 58.0856C25.2751 58.1108 23.7451 55.454 21.8983 52.1564C20.0515 48.8588 18.5935 46.166 18.6367 46.1408C18.6799 46.1156 20.2099 48.7688 22.0567 52.07C23.9035 55.3712 25.3615 58.0604 25.3183 58.0856Z" fill="#263238"/>
<path d="M30.4877 46.6406C30.5381 46.6406 30.4661 48.6746 30.3257 51.1802C30.1853 53.6858 30.0341 55.7126 29.9873 55.709C29.9405 55.7054 30.0089 53.675 30.1493 51.1694C30.2897 48.6638 30.4373 46.637 30.4877 46.6406Z" fill="#263238"/>
<path d="M21.6208 60.9001C21.6028 60.9469 19.8784 60.4069 17.7652 59.6905C15.652 58.9741 13.9528 58.3621 13.9708 58.3153C13.9888 58.2685 15.7096 58.8085 17.8228 59.5213C19.936 60.2341 21.6352 60.8533 21.6208 60.9001Z" fill="#263238"/>
<path d="M47.4911 66.0091C46.4593 63.6544 44.8142 61.6199 42.7276 60.1182C40.641 58.6165 38.1895 57.7026 35.629 57.4719C33.0686 57.2413 30.4932 57.7025 28.1718 58.8072C25.8505 59.9119 23.8683 61.6197 22.4325 63.7521C20.9966 65.8846 20.1596 68.3635 20.009 70.9299C19.8584 73.4963 20.3997 76.056 21.5764 78.3418C22.753 80.6275 24.5218 82.5554 26.698 83.924C28.8742 85.2927 31.378 86.0518 33.9479 86.1223L35.3879 89.4415L46.9079 84.4015C46.9079 84.4015 46.1627 82.5115 45.4679 80.8375C47.136 78.7909 48.2075 76.3239 48.5644 73.7078C48.9214 71.0916 48.55 68.4278 47.4911 66.0091Z" fill="#FF3366"/>
<path d="M45.201 85.1455C45.201 85.1455 45.165 85.0915 45.1074 84.9907C45.0498 84.8899 44.9562 84.7351 44.8446 84.5371C44.6142 84.1339 44.2794 83.5399 43.8582 82.7695C43.0266 81.2251 41.8494 78.9679 40.5642 76.1059C40.2402 75.3859 39.909 74.6371 39.5778 73.8451C39.4122 73.4491 39.2466 73.0459 39.0738 72.6355C38.8787 72.2208 38.7476 71.779 38.685 71.3251C38.6614 71.0802 38.6972 70.8332 38.7894 70.6051C38.8327 70.4886 38.8989 70.382 38.9843 70.2917C39.0697 70.2014 39.1723 70.1292 39.2862 70.0795C39.4052 70.0413 39.531 70.0289 39.6551 70.0432C39.7793 70.0574 39.899 70.0981 40.0062 70.1623C40.2259 70.2888 40.4056 70.4747 40.5246 70.6987C40.6352 70.9311 40.6905 71.1859 40.6861 71.4432C40.6817 71.7006 40.6178 71.9534 40.4994 72.1819C40.2715 72.6551 39.9015 73.0453 39.441 73.2979C38.9712 73.5612 38.4333 73.6778 37.8966 73.6327C37.3478 73.5831 36.8251 73.3755 36.3918 73.0351C35.9463 72.6973 35.5914 72.2546 35.3586 71.7463C35.2325 71.491 35.1521 71.2157 35.121 70.9327C35.0762 70.6395 35.143 70.3402 35.3082 70.0939C35.3997 69.9736 35.5251 69.8833 35.6682 69.8347C35.811 69.7881 35.9629 69.777 36.111 69.8023C36.4072 69.85 36.6793 69.9943 36.885 70.2127C37.0896 70.4256 37.2608 70.6684 37.3926 70.9327C37.5271 71.1911 37.6472 71.4567 37.7526 71.7283C37.9829 72.2757 38.1298 72.8545 38.1882 73.4455C38.2552 74.0498 38.1516 74.6609 37.8894 75.2095C37.7541 75.4791 37.5726 75.7228 37.353 75.9295C37.1305 76.139 36.8634 76.2954 36.5718 76.3867C36.279 76.4711 35.9699 76.4823 35.6718 76.4191C35.378 76.3517 35.0996 76.2295 34.851 76.0591C34.3658 75.7301 33.9377 75.3239 33.5838 74.8567C33.4038 74.6335 33.2238 74.3995 33.0726 74.1655C32.9026 73.9386 32.7521 73.6977 32.6226 73.4455C32.4902 73.1832 32.4412 72.8868 32.4822 72.5959C32.507 72.4497 32.5663 72.3115 32.655 72.1927C32.7443 72.0761 32.8717 71.9945 33.015 71.9623C33.1615 71.9364 33.3124 71.9565 33.447 72.0199C33.5783 72.0759 33.6998 72.1525 33.807 72.2467C34.017 72.4276 34.199 72.6387 34.347 72.8731C34.9976 73.757 35.3265 74.8366 35.2794 75.9331C35.2315 76.4493 35.0531 76.9448 34.761 77.3731C34.4766 77.8005 34.0589 78.1219 33.573 78.2875C33.0946 78.4285 32.5807 78.3848 32.133 78.1651C31.6938 77.9672 31.3293 77.6342 31.0926 77.2147C30.9767 77.0111 30.8998 76.7877 30.8658 76.5559C30.8281 76.3218 30.8713 76.0818 30.9882 75.8755C31.0519 75.7731 31.149 75.6957 31.2631 75.6563C31.3771 75.617 31.5012 75.6181 31.6146 75.6595C31.8246 75.7412 32.0086 75.878 32.1474 76.0555C32.4008 76.3896 32.6147 76.752 32.7846 77.1355L33.3246 78.2155C34.725 81.0271 35.8158 83.3203 36.543 84.9187C36.903 85.7179 37.1766 86.3587 37.3566 86.7691C37.443 86.9815 37.5114 87.1291 37.5582 87.2551L37.623 87.4207L37.5474 87.2587C37.5006 87.1471 37.4286 86.9887 37.3386 86.7763C37.1514 86.3551 36.8742 85.7323 36.5034 84.9367C35.7834 83.3419 34.6674 81.0559 33.2634 78.2515C33.087 77.8915 32.9034 77.5315 32.7198 77.1715C32.5545 76.7872 32.343 76.4245 32.0898 76.0915C31.9595 75.929 31.7879 75.8047 31.593 75.7315C31.4965 75.6969 31.3912 75.6962 31.2943 75.7296C31.1974 75.7629 31.1148 75.8284 31.0602 75.9151C30.9515 76.1164 30.9158 76.3492 30.9594 76.5739C30.9939 76.7954 31.0683 77.0089 31.179 77.2039C31.4074 77.6074 31.7595 77.9268 32.1834 78.1147C32.6122 78.3249 33.1044 78.3661 33.5622 78.2299C34.0296 78.0718 34.4302 77.7611 34.6998 77.3479C34.9842 76.9289 35.1576 76.4446 35.2038 75.9403C35.2489 74.8797 34.9357 73.8348 34.3146 72.9739C34.1713 72.7466 33.9954 72.5416 33.7926 72.3655C33.6989 72.272 33.5859 72.2 33.4616 72.1547C33.3372 72.1093 33.2045 72.0915 33.0726 72.1027C32.9467 72.1351 32.834 72.2059 32.7502 72.3052C32.6663 72.4046 32.6154 72.5275 32.6046 72.6571C32.5663 72.9273 32.6128 73.2028 32.7378 73.4455C32.8627 73.6979 33.0097 73.9389 33.177 74.1655C33.339 74.3995 33.5082 74.6299 33.6882 74.8495C34.0346 75.2986 34.4502 75.6899 34.9194 76.0087C35.1604 76.165 35.4274 76.2772 35.7078 76.3399C35.9892 76.3983 36.2806 76.3884 36.5574 76.3111C36.833 76.2156 37.0864 76.0652 37.3024 75.8691C37.5183 75.6729 37.6923 75.4351 37.8138 75.1699C38.067 74.6378 38.1656 74.0453 38.0982 73.4599C38.0426 72.88 37.8994 72.312 37.6734 71.7751C37.483 71.2344 37.1936 70.7339 36.8202 70.2991C36.6289 70.0959 36.3757 69.9617 36.1002 69.9175C35.9686 69.8878 35.8314 69.8957 35.7041 69.9403C35.5768 69.9848 35.4646 70.0643 35.3802 70.1695C35.2296 70.3948 35.1692 70.6685 35.211 70.9363C35.2428 71.2074 35.3195 71.4714 35.4378 71.7175C35.6718 72.215 36.0255 72.6467 36.4674 72.9739C36.8823 73.3005 37.3819 73.5016 37.9074 73.5535C38.425 73.5976 38.944 73.486 39.3978 73.2331C39.8431 72.9888 40.2006 72.6111 40.4202 72.1531C40.532 71.9375 40.5928 71.6991 40.5978 71.4562C40.6028 71.2134 40.5519 70.9727 40.449 70.7527C40.3367 70.5439 40.1684 70.3706 39.963 70.2523C39.8665 70.1914 39.7576 70.1527 39.6443 70.139C39.531 70.1253 39.416 70.1369 39.3078 70.1731C39.1008 70.2657 38.939 70.4366 38.8578 70.6483C38.7739 70.8597 38.7406 71.0877 38.7606 71.3143C38.8216 71.7596 38.9503 72.193 39.1422 72.5995L39.639 73.8127C39.9702 74.5999 40.2966 75.3523 40.6182 76.0699C41.8962 78.9499 43.0626 81.1963 43.8834 82.7479C44.2974 83.5219 44.625 84.1159 44.8518 84.5227L45.1038 84.9835C45.1722 85.0879 45.201 85.1455 45.201 85.1455Z" fill="white"/>
<path d="M35.0848 85.1118C35.0266 85.123 34.9676 85.129 34.9084 85.1298C34.7932 85.1298 34.6204 85.1514 34.4008 85.1514C33.7785 85.1605 33.1563 85.1232 32.5396 85.0398C31.6231 84.9216 30.7217 84.7068 29.8504 84.399C26.8088 83.3357 24.2525 81.2114 22.6504 78.4157C22.3401 77.8769 22.0694 77.3162 21.8404 76.7382C21.7576 76.533 21.7072 76.3782 21.6676 76.263C21.6469 76.2078 21.6301 76.1512 21.6172 76.0938C21.6447 76.1461 21.6688 76.2002 21.6892 76.2557C21.7324 76.3601 21.79 76.5221 21.88 76.7237C22.122 77.2934 22.401 77.8466 22.7152 78.3798C23.1809 79.1714 23.7248 79.9143 24.3388 80.5973C25.6122 82.0041 27.1636 83.1313 28.8949 83.9077C30.6262 84.6841 32.4998 85.0929 34.3972 85.1082C34.6168 85.1082 34.7896 85.1082 34.9048 85.1082L35.0848 85.1118Z" fill="#263238"/>
<path d="M21.0814 73.3281C21.1733 73.5588 21.2327 73.8011 21.2578 74.0481C21.3166 74.2907 21.342 74.5402 21.3334 74.7897C21.2416 74.5591 21.1822 74.3167 21.157 74.0697C21.0963 73.8274 21.0708 73.5777 21.0814 73.3281Z" fill="#263238"/>
<path d="M47.3713 69.6957C47.3553 69.6473 47.3421 69.598 47.3317 69.5481C47.3101 69.4401 47.2777 69.2997 47.2381 69.1233C47.2201 69.0297 47.1985 68.9253 47.1733 68.8137C47.1481 68.7021 47.1085 68.5833 47.0725 68.4537C46.9971 68.1538 46.9058 67.8582 46.7989 67.5681L46.6189 67.0677C46.5541 66.8949 46.4677 66.7077 46.3885 66.5385C46.2373 66.1785 46.0285 65.8005 45.8197 65.4045C44.8598 63.7108 43.5534 62.2387 41.9857 61.0845C41.6257 60.8325 41.2657 60.5769 40.9273 60.3861C40.7581 60.2853 40.5961 60.1773 40.4341 60.0945L39.9589 59.8533C39.6601 59.6913 39.3721 59.5869 39.1273 59.4933C39.0013 59.4429 38.8861 59.3889 38.7673 59.3493L38.4685 59.2485L38.0545 59.1045C38.0053 59.0917 37.9581 59.0723 37.9141 59.0469C37.9642 59.0561 38.0136 59.0693 38.0617 59.0865L38.4793 59.2089L38.7817 59.3025C38.8933 59.3421 39.0085 59.3889 39.1417 59.4393C39.3901 59.5437 39.6817 59.6445 39.9841 59.7993L40.4629 60.0333C40.6285 60.1161 40.7905 60.2241 40.9669 60.3213C41.3389 60.535 41.6994 60.7681 42.0469 61.0197C43.6335 62.1722 44.9503 63.6561 45.9061 65.3685C46.114 65.7413 46.3026 66.1247 46.4713 66.5169C46.5469 66.7005 46.6333 66.8769 46.6981 67.0497L46.8745 67.5537C46.9762 67.8417 47.0627 68.1349 47.1337 68.4321C47.1661 68.5653 47.2021 68.6841 47.2273 68.7921C47.2525 68.9001 47.2669 69.0081 47.2813 69.1017C47.3125 69.2817 47.3377 69.4257 47.3569 69.5337C47.3664 69.5871 47.3712 69.6414 47.3713 69.6957Z" fill="#263238"/>
<g opacity="0.2">
<path d="M29.689 62.5334C29.2174 62.0798 28.4326 61.9466 27.6118 62.0474C26.4384 62.2073 25.3753 62.8229 24.6526 63.761C22.4926 66.4826 21.6754 68.9774 22.0858 72.5954C22.2226 73.8194 22.8382 75.677 23.8318 76.5014C24.0768 76.7139 24.3634 76.8732 24.6732 76.9693C24.983 77.0653 25.3095 77.096 25.6318 77.0594C27.3058 76.8398 27.853 74.8778 27.709 73.2974C27.5722 71.825 27.0934 70.3094 27.565 68.909C27.9574 67.7534 28.9258 66.9074 29.599 65.8922C30.2722 64.877 30.5674 63.3938 29.689 62.5334Z" fill="white"/>
</g>
<g opacity="0.2">
<path d="M34.7351 59.7262C33.8819 59.0962 32.5139 59.2799 31.9415 59.9135C31.7121 60.1827 31.5467 60.5003 31.4575 60.8426C31.3684 61.1849 31.3578 61.5429 31.4267 61.8899C31.5249 62.3049 31.7438 62.6817 32.0558 62.9725C32.3678 63.2634 32.759 63.4554 33.1799 63.5243C33.6036 63.5738 34.0321 63.4884 34.4044 63.2803C34.7767 63.0722 35.0738 62.7519 35.2535 62.365C35.5919 61.5838 35.4191 60.2302 34.7351 59.7262Z" fill="white"/>
</g>
<path d="M41.542 94.7188C41.9041 94.7804 42.2556 94.8931 42.586 95.0535C42.6994 95.1143 42.8253 95.1482 42.9539 95.1526C43.0824 95.157 43.2103 95.1317 43.3276 95.0788L45.646 94.06C45.7738 94.0043 45.886 93.9181 45.9727 93.8088C46.0593 93.6996 46.1177 93.5707 46.1428 93.4335C46.1981 93.0606 46.3829 92.7191 46.6648 92.4688L41.542 94.7188Z" fill="#263238"/>
<path d="M36.1973 89.362C36.2189 89.4088 38.3573 92.7964 39.1601 94.0888C39.3215 94.354 39.5467 94.5746 39.8152 94.7306C40.0837 94.8865 40.3869 94.9728 40.6973 94.9816C40.9448 94.9858 41.1904 94.9367 41.4173 94.8376L46.4897 92.6092C46.4897 92.6092 47.8145 92.0296 47.6561 90.8452C47.4833 89.5996 46.1729 84.9844 46.1729 84.9844L36.1973 89.362Z" fill="#E0E0E0"/>
<path d="M47.5292 89.6898L38.7052 93.6001C38.5671 93.6613 38.5047 93.8229 38.5659 93.9611L38.5791 93.9907C38.6403 94.1288 38.8019 94.1912 38.94 94.13L47.764 90.2197C47.9022 90.1585 47.9646 89.9969 47.9033 89.8587L47.8902 89.8291C47.829 89.691 47.6674 89.6286 47.5292 89.6898Z" fill="#E0E0E0"/>
<path d="M47.7641 90.2161C47.8255 90.181 47.8736 90.1266 47.9009 90.0613C47.9152 90.0217 47.9201 89.9792 47.9151 89.9373C47.9101 89.8954 47.8954 89.8553 47.8721 89.8201C47.8471 89.7704 47.8063 89.7304 47.7562 89.7063C47.706 89.6822 47.6493 89.6754 47.5949 89.6869C47.1125 89.8885 46.4069 90.2197 45.5357 90.6049L38.7281 93.6397C38.6934 93.6544 38.663 93.6776 38.6397 93.7072C38.6164 93.7368 38.601 93.7718 38.5949 93.8089C38.586 93.8456 38.586 93.8838 38.5949 93.9205C38.6077 93.9566 38.6259 93.9906 38.6489 94.0213C38.6738 94.0495 38.7051 94.0714 38.7401 94.0852C38.7752 94.099 38.813 94.1042 38.8505 94.1005C38.9311 94.0762 39.0094 94.0449 39.0845 94.0069L40.0421 93.5821L41.8421 92.7829L44.9093 91.4365L46.9829 90.5329L47.5481 90.2917L47.6957 90.2341C47.7281 90.2341 47.7461 90.2125 47.7461 90.2341L47.6993 90.2593L47.5553 90.3277L46.9973 90.5869L44.9381 91.5157L41.8781 92.8801L40.0781 93.6865L39.1205 94.1113L38.9981 94.1653C38.9545 94.1863 38.9086 94.202 38.8613 94.2121C38.8084 94.2177 38.7549 94.2105 38.7054 94.1911C38.6559 94.1716 38.6118 94.1406 38.5769 94.1005C38.5446 94.0611 38.5202 94.0159 38.5049 93.9673C38.4906 93.9167 38.4906 93.8631 38.5049 93.8125C38.5129 93.7597 38.5343 93.7098 38.5671 93.6676C38.5999 93.6253 38.6429 93.5922 38.6921 93.5713L45.5105 90.5617C46.3853 90.1837 47.0837 89.8669 47.5877 89.6689C47.6495 89.6573 47.7135 89.6666 47.7695 89.6953C47.8255 89.7239 47.8705 89.7704 47.8973 89.8273C47.9207 89.8659 47.9348 89.9094 47.9386 89.9544C47.9423 89.9993 47.9356 90.0446 47.9189 90.0865C47.9036 90.1177 47.8819 90.1454 47.8552 90.1677C47.8286 90.1901 47.7975 90.2065 47.7641 90.2161Z" fill="#263238"/>
<path d="M47.2117 88.4703L38.0158 92.5454C37.8776 92.6066 37.8153 92.7682 37.8765 92.9064L37.8896 92.936C37.9508 93.0742 38.1124 93.1365 38.2506 93.0753L47.4465 89.0002C47.5847 88.939 47.647 88.7774 47.5858 88.6392L47.5727 88.6096C47.5115 88.4715 47.3498 88.4091 47.2117 88.4703Z" fill="#E0E0E0"/>
<path d="M47.4513 88.9915C47.515 88.9557 47.5636 88.8982 47.5881 88.8295C47.601 88.788 47.6044 88.7442 47.5982 88.7012C47.592 88.6582 47.5762 88.6172 47.5521 88.5811C47.5217 88.531 47.4753 88.4928 47.4204 88.4725C47.3655 88.4523 47.3053 88.4512 47.2497 88.4695L45.1149 89.4307L38.0409 92.5807C38.0048 92.5963 37.9735 92.6211 37.9501 92.6527C37.9267 92.6843 37.9121 92.7216 37.9077 92.7607C37.8972 92.7971 37.8972 92.8358 37.9077 92.8722C37.9198 92.9113 37.9408 92.947 37.9689 92.9767C37.9973 93.0036 38.0317 93.0233 38.0694 93.0339C38.107 93.0446 38.1466 93.0459 38.1849 93.0378C38.2569 93.0126 38.3505 92.9659 38.4297 92.9335L39.4233 92.4907L41.3061 91.6626L44.4921 90.2587L46.6521 89.3226L47.2389 89.0742L47.3937 89.0095L47.4477 88.9915L47.3973 89.0203L47.2497 89.0887L46.6665 89.355L44.5281 90.3199L41.3529 91.7418L39.4737 92.5771L38.4801 93.0162C38.3901 93.0522 38.3217 93.0918 38.2173 93.1278C38.164 93.1401 38.1085 93.1389 38.0557 93.1245C38.0029 93.11 37.9546 93.0828 37.9149 93.0451C37.8774 93.0062 37.8491 92.9595 37.8321 92.9083C37.8104 92.8572 37.8029 92.8012 37.8105 92.7462C37.8178 92.6913 37.8392 92.6393 37.8727 92.5951C37.9061 92.5509 37.9504 92.5162 38.0013 92.4942L45.0825 89.3695C45.9933 88.9735 46.7241 88.6494 47.2425 88.4334C47.3057 88.4153 47.3731 88.4186 47.4343 88.4426C47.4955 88.4667 47.547 88.5103 47.5809 88.5667C47.6062 88.6064 47.6219 88.6514 47.6269 88.6983C47.6319 88.7451 47.626 88.7925 47.6097 88.8367C47.5971 88.873 47.5762 88.9058 47.5487 88.9327C47.5212 88.9595 47.4879 88.9797 47.4513 88.9915Z" fill="#263238"/>
<path d="M46.8338 87.2701L37.3976 91.4517C37.2595 91.5129 37.1971 91.6745 37.2583 91.8126L37.2714 91.8423C37.3327 91.9804 37.4943 92.0428 37.6324 91.9816L47.0686 87.8C47.2068 87.7388 47.2691 87.5772 47.2079 87.439L47.1948 87.4094C47.1336 87.2713 46.9719 87.2089 46.8338 87.2701Z" fill="#E0E0E0"/>
<path d="M47.0695 87.7963C47.1069 87.7776 47.1395 87.7508 47.1651 87.7178C47.1907 87.6848 47.2084 87.6464 47.2171 87.6056C47.2257 87.5648 47.225 87.5225 47.2151 87.4819C47.2051 87.4414 47.1861 87.4036 47.1595 87.3715C47.1271 87.3219 47.0786 87.2852 47.0221 87.2674C46.9656 87.2497 46.9048 87.2521 46.8499 87.2743L44.6575 88.2607L37.4179 91.5007C37.3808 91.5159 37.3488 91.5411 37.3253 91.5736C37.3017 91.606 37.2877 91.6443 37.2847 91.6843C37.2725 91.7229 37.2725 91.7644 37.2847 91.8031C37.299 91.8408 37.3211 91.8752 37.3495 91.9039C37.3794 91.9304 37.4158 91.9486 37.4549 91.9568C37.494 91.965 37.5346 91.9629 37.5727 91.9507C37.6519 91.9219 37.7419 91.8787 37.8283 91.8391L38.8471 91.3891L40.7695 90.5395L44.0311 89.0995L46.2343 88.1383L46.8355 87.8827L46.9939 87.8179L47.0479 87.7963C47.0479 87.7963 47.0299 87.7963 46.9975 87.8251L46.8427 87.9007L46.2487 88.1707L44.0815 89.1715L40.8415 90.6115L38.9191 91.4683L37.9003 91.9183L37.6375 92.0335C37.584 92.0513 37.5266 92.0544 37.4715 92.0424C37.4163 92.0303 37.3655 92.0036 37.3243 91.9651C37.2846 91.928 37.2539 91.8825 37.2343 91.8319C37.2114 91.7799 37.2027 91.7227 37.2091 91.6663C37.2145 91.6103 37.2347 91.5569 37.2676 91.5113C37.3005 91.4658 37.3449 91.4298 37.3963 91.4071L44.6395 88.2067L46.8427 87.2491C46.9066 87.2224 46.9779 87.2193 47.0439 87.2404C47.1098 87.2615 47.1661 87.3054 47.2027 87.3643C47.2291 87.4041 47.2463 87.4493 47.2531 87.4966C47.26 87.5439 47.2563 87.5922 47.2423 87.6379C47.2296 87.677 47.2071 87.7121 47.1768 87.7399C47.1465 87.7676 47.1095 87.7871 47.0695 87.7963Z" fill="#263238"/>
<path d="M46.5232 86.0462L36.7052 90.397C36.5671 90.4582 36.5047 90.6198 36.5659 90.758L36.5791 90.7876C36.6403 90.9257 36.8019 90.9881 36.94 90.9269L46.758 86.5761C46.8962 86.5149 46.9585 86.3533 46.8973 86.2151L46.8842 86.1855C46.823 86.0474 46.6614 85.985 46.5232 86.0462Z" fill="#E0E0E0"/>
<path d="M46.7599 86.5735C46.7945 86.5562 46.8252 86.5319 46.8499 86.5022C46.8747 86.4724 46.8931 86.4379 46.9039 86.4007C46.9137 86.3554 46.9136 86.3084 46.9036 86.2631C46.8937 86.2177 46.8741 86.1751 46.8463 86.1379C46.8073 86.0891 46.7525 86.0555 46.6913 86.043C46.6301 86.0305 46.5664 86.0399 46.5115 86.0695L44.2399 87.0919L36.7195 90.4363C36.6812 90.4532 36.6482 90.4803 36.6241 90.5145C36.6 90.5488 36.5857 90.589 36.5827 90.6307C36.582 90.6731 36.5907 90.715 36.6082 90.7536C36.6256 90.7922 36.6513 90.8264 36.6835 90.8539C36.7164 90.8791 36.7557 90.8948 36.797 90.8993C36.8382 90.9037 36.8799 90.8967 36.9175 90.8791L37.1875 90.7603L38.2423 90.2959L40.2403 89.4139L43.6207 87.9235L45.9067 86.9263L46.5295 86.6599L46.6915 86.5951L46.7491 86.5735L46.6951 86.6023L46.5367 86.6779L45.9211 86.9623L43.6495 87.9847L40.2727 89.4895L38.2783 90.3787L37.2235 90.8467L36.9535 90.9655C36.9006 90.989 36.8424 90.998 36.7848 90.9917C36.7273 90.9854 36.6724 90.9639 36.6259 90.9295C36.5812 90.8932 36.5465 90.8462 36.5251 90.7927C36.5046 90.7541 36.4924 90.7116 36.4891 90.6679C36.4859 90.6243 36.4918 90.5805 36.5063 90.5392C36.5208 90.498 36.5438 90.4602 36.5736 90.4282C36.6035 90.3962 36.6397 90.3708 36.6799 90.3535L44.2039 87.0343L46.4863 86.0371C46.547 86.0076 46.6161 86.0001 46.6817 86.0159C46.7474 86.0316 46.8056 86.0697 46.8463 86.1235C46.8755 86.1634 46.8954 86.2093 46.9048 86.2579C46.9141 86.3064 46.9126 86.3564 46.9003 86.4043C46.8821 86.4634 46.8439 86.5143 46.7923 86.5483C46.7826 86.5581 46.7717 86.5666 46.7599 86.5735Z" fill="#263238"/>
<path d="M33.5479 86.7945C33.5911 86.8881 34.7719 89.0121 35.3803 90.1065C35.4919 90.3049 35.6471 90.4754 35.8342 90.6051C36.0213 90.7348 36.2353 90.8203 36.4603 90.8553L37.1262 90.9633L46.9291 86.6433L47.2891 86.0889C47.4152 85.8978 47.4958 85.6802 47.5245 85.453C47.5532 85.2258 47.5293 84.995 47.4547 84.7785L46.2342 81.2109L33.5479 86.7945Z" fill="#FF3366"/>
<g opacity="0.3">
<path d="M39.2607 93.9582C40.3064 93.7255 41.3213 93.3715 42.2847 92.9033C43.1199 92.5433 43.9515 92.1833 44.8515 91.7765C45.5103 91.4705 46.1079 91.1681 46.7595 90.8477C47.0262 90.7325 47.2646 90.5605 47.4579 90.3438L39.2607 93.9582Z" fill="black"/>
</g>
<g opacity="0.3">
<path d="M38.4092 92.9691C39.5269 92.6994 40.613 92.312 41.6492 91.8135C42.5528 91.4139 43.4492 91.0467 44.4176 90.6003C45.1376 90.2691 45.7748 89.9451 46.4768 89.6031C46.7641 89.4799 47.0227 89.2985 47.2364 89.0703L38.4092 92.9691Z" fill="black"/>
</g>
<g opacity="0.3">
<path d="M37.9111 91.8327C39.0297 91.5656 40.116 91.1782 41.1511 90.6771C42.0511 90.2775 42.9511 89.9139 43.9195 89.4639C44.6395 89.1363 45.2767 88.8123 45.9787 88.4703C46.2645 88.3444 46.5227 88.1634 46.7383 87.9375L37.9111 91.8327Z" fill="black"/>
</g>
<g opacity="0.3">
<path d="M37.4131 90.7035C38.5307 90.4332 39.6167 90.0458 40.6531 89.5479C41.5531 89.1483 42.4531 88.7811 43.4215 88.3347C44.1415 88.0035 44.7787 87.6795 45.4807 87.3375C45.768 87.2143 46.0266 87.0329 46.2403 86.8047L37.4131 90.7035Z" fill="black"/>
</g>
<path opacity="0.3" d="M33.5479 86.7945C33.5911 86.8881 34.7719 89.0121 35.3803 90.1065C35.4919 90.3049 35.6471 90.4754 35.8342 90.6051C36.0213 90.7348 36.2353 90.8203 36.4603 90.8553L37.1262 90.9633L46.9291 86.6433L47.2891 86.0889C47.4152 85.8978 47.4958 85.6802 47.5245 85.453C47.5532 85.2258 47.5293 84.995 47.4547 84.7785L46.2342 81.2109L33.5479 86.7945Z" fill="black"/>
<path d="M47.4185 85.3754C47.4185 85.397 44.8157 86.567 41.5793 87.989C38.3429 89.411 35.7149 90.5414 35.7041 90.509C35.6933 90.4766 38.3069 89.3174 41.5433 87.8954C44.7797 86.4734 47.4077 85.3502 47.4185 85.3754Z" fill="#263238"/>
<path d="M46.1334 81.1879C46.1334 81.2167 43.3146 82.4983 39.8046 84.0679C36.2946 85.6375 33.4434 86.8651 33.4326 86.8399C33.4218 86.8147 36.2514 85.5331 39.7614 83.9599C43.2714 82.3867 46.1226 81.1627 46.1334 81.1879Z" fill="#263238"/>
<path d="M161.394 57.1363L156.898 56.6107C154.365 59.1847 150.96 60.718 147.354 60.9093C143.748 61.1006 140.2 59.936 137.409 57.6445C134.618 55.3529 132.785 52.1002 132.271 48.5257C131.756 44.9512 132.597 41.3136 134.629 38.3278C136.66 35.3421 139.735 33.2242 143.249 32.3907C146.763 31.5571 150.461 32.068 153.618 33.8231C156.774 35.5781 159.159 38.4503 160.305 41.875C161.451 45.2997 161.274 49.0292 159.81 52.3303L161.394 57.1363Z" fill="white"/>
<path d="M161.394 57.1322C161.394 57.1322 161.355 57.0242 161.283 56.8154L160.97 55.8938L159.774 52.3334H159.854C159.85 52.3374 159.845 52.3406 159.84 52.3428C159.834 52.345 159.829 52.3461 159.823 52.3461C159.817 52.3461 159.812 52.345 159.807 52.3428C159.801 52.3406 159.796 52.3374 159.792 52.3334C159.787 52.3255 159.784 52.3161 159.784 52.3064C159.784 52.2967 159.787 52.2873 159.792 52.2794C160.76 50.0744 161.162 47.6627 160.962 45.263C160.9 44.5228 160.779 43.7885 160.602 43.067C160.403 42.298 160.146 41.5447 159.836 40.8134C158.599 37.9259 156.448 35.5244 153.714 33.9779C150.98 32.4313 147.814 31.8254 144.702 32.2531C141.59 32.6808 138.705 34.1186 136.49 36.3454C134.274 38.5723 132.851 41.465 132.44 44.579C132.157 46.7897 132.383 49.0358 133.102 51.1454C133.784 53.1278 134.9 54.9332 136.367 56.4302C138.967 59.1067 142.505 60.6674 146.235 60.7826H146.85C147.052 60.7929 147.254 60.7869 147.455 60.7646L148.632 60.6602C149.37 60.5413 150.101 60.3815 150.821 60.1814C153.115 59.4924 155.2 58.2414 156.887 56.5418C156.893 56.5386 156.899 56.537 156.905 56.537C156.912 56.537 156.918 56.5386 156.923 56.5418L160.253 56.9558L161.117 57.0674L161.416 57.107L161.135 57.0818L160.278 56.9918L156.912 56.6318H156.948C155.256 58.358 153.154 59.6285 150.839 60.3254C150.114 60.532 149.377 60.6967 148.632 60.8186L147.444 60.9302C147.241 60.9536 147.037 60.9609 146.832 60.9518H146.21C143.266 60.8718 140.416 59.8995 138.038 58.1638C135.659 56.428 133.864 54.0106 132.89 51.2318C132.158 49.0952 131.927 46.8192 132.213 44.579C132.517 42.2291 133.395 39.9901 134.769 38.0594C134.929 37.8138 135.107 37.5804 135.302 37.361L135.86 36.6842L136.475 36.065C136.674 35.8556 136.887 35.6595 137.112 35.4782L137.778 34.9274C137.994 34.7402 138.25 34.5998 138.48 34.4342C138.711 34.2686 138.952 34.1066 139.2 33.9662L139.949 33.563C141.914 32.5358 144.09 31.9776 146.307 31.9322C148.315 31.8949 150.308 32.2728 152.163 33.0422C154.018 33.8116 155.694 34.9559 157.085 36.4034C158.303 37.6705 159.279 39.1491 159.965 40.7666C160.279 41.5055 160.535 42.2673 160.732 43.0454C160.911 43.7751 161.031 44.5179 161.092 45.2666C161.275 47.6877 160.844 50.1158 159.839 52.3262L159.764 52.2794C159.773 52.2718 159.784 52.2676 159.796 52.2676C159.808 52.2676 159.819 52.2718 159.828 52.2794C159.829 52.2866 159.829 52.2938 159.828 52.301C160.329 53.8742 160.718 55.0838 160.98 55.901C161.106 56.3006 161.204 56.621 161.268 56.819C161.333 57.017 161.394 57.1322 161.394 57.1322Z" fill="#263238"/>
<path d="M139.971 46.7825L141.699 44.8709L145.364 47.8157L150.807 41.5625L152.589 43.2977L145.281 51.3365L139.971 46.7825Z" fill="#263238"/>
<path d="M121.779 58.3601L124.634 58.0001C124.643 57.9964 124.654 57.9964 124.663 58.0001C126.111 59.4567 127.898 60.5295 129.865 61.1213C130.482 61.2918 131.108 61.4288 131.741 61.5317L132.752 61.6217C132.925 61.6362 133.098 61.6362 133.271 61.6217H133.8C135.305 61.5762 136.789 61.254 138.177 60.6713C138.537 60.5129 138.926 60.3365 139.29 60.1385L138.955 60.0053C137.179 59.2651 135.571 58.1755 134.225 56.8013C132.768 55.3156 131.661 53.5236 130.985 51.5561C130.271 49.4677 130.043 47.2441 130.319 45.0545C130.621 42.7499 131.487 40.5553 132.839 38.6645C132.998 38.4251 133.174 38.1966 133.364 37.9805L133.911 37.3181L134.145 37.0805H133.742C132.043 37.0474 130.354 37.3651 128.783 38.0136C127.211 38.6621 125.791 39.6275 124.609 40.8497C123.568 41.9152 122.731 43.1622 122.139 44.5289C121.872 45.1559 121.651 45.8021 121.481 46.4621C120.833 49.0993 121.078 51.8767 122.175 54.3605C122.179 54.3676 122.182 54.3756 122.182 54.3839C122.182 54.3921 122.179 54.4002 122.175 54.4073L121.157 57.4349C121.041 57.7949 120.951 58.0433 120.887 58.2269C120.822 58.4105 120.793 58.4969 120.793 58.4969L121.049 58.4609L121.779 58.3601Z" fill="#F5F5F5"/>
<path d="M121.78 58.3633C121.78 58.3633 121.697 58.3813 121.531 58.4065L120.786 58.5145H120.75V58.4785C121.031 57.6361 121.492 56.2393 122.107 54.3781V54.3565L122.082 54.2989L122.032 54.1801L121.934 53.9389C121.866 53.7769 121.808 53.6077 121.744 53.4349C121.625 53.0749 121.517 52.7149 121.42 52.3549C121.213 51.5405 121.093 50.7068 121.06 49.8673C121.018 48.9267 121.086 47.9844 121.261 47.0593C121.358 46.5624 121.486 46.0719 121.643 45.5905C121.799 45.0858 121.992 44.5936 122.222 44.1181C123.204 42.0063 124.764 40.2162 126.722 38.9557C128.917 37.5431 131.5 36.8567 134.106 36.9937H134.311L134.167 37.1377L133.933 37.3753C132.211 39.3026 131.032 41.6534 130.517 44.1865C129.878 47.4491 130.41 50.8325 132.02 53.7411C133.63 56.6498 136.215 58.8972 139.319 60.0877L139.495 60.1525L139.33 60.2317C138.702 60.5601 138.051 60.8429 137.382 61.0777C136.743 61.2912 136.088 61.4537 135.424 61.5637C134.203 61.7542 132.962 61.7711 131.737 61.6141C131.32 61.5277 130.913 61.4593 130.517 61.3729C130.132 61.2829 129.752 61.1711 129.379 61.0381C128.697 60.7994 128.037 60.5019 127.406 60.1489C126.397 59.5858 125.473 58.8815 124.663 58.0573C124.663 58.0249 124.58 58.0573 124.526 58.0573L124.357 58.0753L124.037 58.1149L123.454 58.1833L122.539 58.2877L121.981 58.3489C121.852 58.3489 121.787 58.3489 121.787 58.3489L121.978 58.3165L122.536 58.2373L123.446 58.1149L124.03 58.0393L124.35 57.9961L124.519 57.9745H124.606C124.623 57.9701 124.642 57.9701 124.66 57.9745C124.671 57.9701 124.684 57.9701 124.696 57.9745H124.714C125.528 58.7834 126.451 59.4741 127.457 60.0265C128.796 60.7671 130.261 61.2552 131.777 61.4665C132.366 61.5321 132.959 61.5646 133.552 61.5637C134.181 61.5586 134.81 61.5045 135.431 61.4017C136.087 61.2912 136.733 61.1287 137.364 60.9157C138.022 60.6797 138.663 60.3982 139.283 60.0733V60.2173C136.144 59.0217 133.528 56.757 131.894 53.8219C130.261 50.8868 129.716 47.4697 130.355 44.1721C130.873 41.607 132.068 39.227 133.814 37.2781L134.052 37.0405L134.113 37.1989C131.686 37.0642 129.273 37.6555 127.183 38.8974C125.093 40.1394 123.42 41.9756 122.377 44.1721C122.15 44.6371 121.957 45.1184 121.801 45.6121C121.643 46.0836 121.514 46.5645 121.416 47.0521C121.078 48.788 121.122 50.5766 121.546 52.2937C121.639 52.6537 121.744 53.0353 121.859 53.3737C121.92 53.5429 121.978 53.7121 122.042 53.8741L122.14 54.1153L122.19 54.2305L122.212 54.2881C122.223 54.3063 122.227 54.3279 122.224 54.349C122.22 54.3701 122.21 54.3894 122.194 54.4033V54.3817C121.556 56.2429 121.085 57.6433 120.786 58.4641L120.764 58.4389L121.513 58.3489L121.78 58.3633Z" fill="#263238"/>
<path d="M242.758 32.8438H238.28C237.395 32.8438 236.678 33.561 236.678 34.4457V58.9293C236.678 59.8141 237.395 60.5313 238.28 60.5313H242.758C243.643 60.5313 244.36 59.8141 244.36 58.9293V34.4457C244.36 33.561 243.643 32.8438 242.758 32.8438Z" fill="#455A64"/>
<path d="M218.634 49.1406H214.263C213.349 49.1406 212.607 49.882 212.607 50.7966V60.0558C212.607 60.9704 213.349 61.7118 214.263 61.7118H218.634C219.548 61.7118 220.29 60.9704 220.29 60.0558V50.7966C220.29 49.882 219.548 49.1406 218.634 49.1406Z" fill="#455A64"/>
<path d="M230.389 42.3047H226.249C225.271 42.3047 224.478 43.0977 224.478 44.0759V59.9375C224.478 60.9157 225.271 61.7087 226.249 61.7087H230.389C231.367 61.7087 232.16 60.9157 232.16 59.9375V44.0759C232.16 43.0977 231.367 42.3047 230.389 42.3047Z" fill="#455A64"/>
<path d="M241.519 23.6953C241.468 23.7837 241.406 23.8658 241.336 23.9401L240.763 24.6133L238.603 27.0973L231.061 35.5897L230.978 35.6869L230.87 35.6149L226.154 32.5369L226.356 32.5081L226.176 32.7205C222.292 37.2745 218.778 41.4001 216.208 44.4169L216.139 44.4925L216.06 44.4313L212.312 41.6485L211.319 40.8781C211.196 40.7955 211.083 40.7001 210.98 40.5937C211.107 40.6631 211.227 40.7425 211.34 40.8313L212.384 41.5513L216.19 44.2585H216.046L225.946 32.5045L226.126 32.2921L226.216 32.1877L226.327 32.2633L231.036 35.3521L230.845 35.3773L238.459 26.9569L240.691 24.5269L241.3 23.8861C241.365 23.814 241.439 23.7499 241.519 23.6953Z" fill="#263238"/>
<path d="M241.761 29.5441C241.676 28.9589 241.641 28.3676 241.657 27.7765C241.628 26.6965 241.61 25.1701 241.61 23.4925L241.786 23.6437L241.635 23.6689C239.943 23.9461 238.395 24.1837 237.297 24.3385C236.704 24.4528 236.101 24.5154 235.497 24.5257C236.077 24.3438 236.67 24.2089 237.272 24.1225C238.377 23.9137 239.903 23.6437 241.592 23.3665L241.747 23.3413L241.923 23.3125V23.4925C241.923 25.1701 241.923 26.6821 241.876 27.7765C241.892 28.368 241.853 28.9596 241.761 29.5441Z" fill="#263238"/>
</svg>
