<svg width="990" height="534" viewBox="0 0 990 534" fill="none" xmlns="http://www.w3.org/2000/svg">
<g opacity="0.5">
<path d="M129.469 43.5858C123.043 47.7779 114.974 39.7641 107.357 40.6801C105.591 40.8925 103.856 41.596 102.091 41.3792C99.179 41.0218 96.7682 38.2265 93.8594 38.6084C92.3756 38.8037 90.9707 39.8302 89.5127 39.4985C88.2829 39.2186 87.4807 38.0715 86.4748 37.3092C84.1658 35.5577 80.9399 35.9266 78.0842 36.4234C68.1754 38.1433 58.3556 40.3872 48.6821 43.1422C45.4864 44.0524 41.7467 45.6345 41.2774 48.925C43.2219 48.9552 44.7774 51.2005 44.1245 53.0338C43.4716 54.8657 40.8469 55.6194 39.3215 54.4135C40.0017 53.6555 39.2153 52.3419 38.2137 52.1581C37.212 51.9758 36.2319 52.507 35.3508 53.0195C32.5755 54.6346 29.7987 56.2497 27.0234 57.8648C25.9629 57.18 24.901 56.4938 23.8405 55.8089C21.919 56.2181 22.351 59.434 24.1232 60.281C25.8955 61.128 27.9734 60.5366 29.9279 60.3399C31.8824 60.1432 34.3119 60.7031 34.8514 62.5924C31.6657 63.1035 28.4785 63.6132 25.2928 64.1242C19.0978 65.1163 12.5254 68.7973 7.58751 72.6692C5.91428 73.9814 4.49648 76.9776 6.46676 77.7787C7.5545 76.9704 9.01535 76.6919 10.3241 77.0422C8.78862 78.5066 7.74106 80.472 7.378 82.5623C10.5551 79.8862 15.714 79.9767 18.795 82.7633C13.2903 85.0072 7.78697 87.2511 2.28224 89.4951C1.52599 89.8037 0.720944 90.1511 0.283264 90.8417C-0.75282 92.4783 1.24473 94.6476 3.18057 94.5816C5.11641 94.5155 6.71932 93.1445 8.23757 91.9414C11.8395 89.083 15.8862 86.786 20.1855 85.1594C21.0982 84.8148 22.1056 84.4976 23.0283 84.8105C23.7903 85.0689 24.3471 85.7064 24.9756 86.2088C27.883 88.536 32.254 87.8354 35.4771 85.9705C38.7016 84.1056 41.2674 81.2817 44.3929 79.2546C48.5645 76.5484 53.5224 75.3855 58.3685 74.27C61.3146 73.5909 64.5333 72.9391 67.2556 74.2556C69.9434 75.5563 71.5535 78.5267 74.2843 79.7298C75.715 80.36 77.4787 80.5337 78.4301 81.7756C79.6599 83.3806 78.7644 85.7035 77.6752 87.4076C76.5861 89.1117 75.2659 91.024 75.7954 92.9765C76.3249 94.929 79.9727 95.2577 79.944 93.2349C81.7837 96.3689 82.1826 100.311 81.0102 103.751C79.0773 106.179 81.7206 109.508 84.041 111.57C86.3614 113.631 88.5369 117.51 86.0859 119.414C85.3827 119.96 84.4701 120.13 83.6291 120.419C80.3171 121.56 77.912 124.944 77.9235 128.449C71.4286 135.664 64.2478 143.91 62.3493 153.433C61.1883 159.258 61.9618 165.274 62.7381 171.163C62.9319 172.628 63.1629 174.183 64.1287 175.3C64.9122 176.207 66.0717 176.695 66.9758 177.482C68.1381 178.494 68.8183 179.941 69.3952 181.369C72.2251 188.375 73.3688 195.944 75.7782 203.105C77.9206 209.474 81.0676 215.502 85.0685 220.899C85.2177 212.654 83.1542 204.38 79.1505 197.172C78.4085 195.837 77.5777 194.454 77.5719 192.925C77.5662 191.398 78.7903 189.748 80.3056 189.945C83.688 190.382 81.3977 196.757 84.2433 198.637C83.2474 202.804 89.2932 205.833 90.6363 209.902C91.2864 211.87 90.9707 214.184 92.1661 215.878C92.8707 216.877 93.9885 217.483 94.9457 218.244C97.6722 220.409 99.1273 224.073 98.6308 227.52C98.341 229.527 97.4441 231.461 97.5574 233.485C97.7741 237.368 101.565 240.067 105.246 241.321C108.927 242.574 112.984 243.055 116.134 245.333C117.765 246.514 119.057 248.116 120.699 249.284C124.038 251.662 128.755 251.922 132.335 249.925C133.599 247.474 137.076 248.347 138.567 250.665C140.058 252.985 140.708 256.039 143.052 257.491C145.79 259.186 149.406 257.821 152.533 258.595C160.553 260.579 159.972 273.88 167.454 277.384C169.699 278.435 172.507 278.478 174.226 280.264C174.998 281.065 175.475 282.159 176.399 282.78C178.339 284.08 180.876 282.637 183.202 282.435C189.061 281.922 192.421 289.717 190.752 295.36C189.083 301.004 184.581 305.318 181.868 310.539C178.3 317.405 177.999 325.44 177.774 333.174C177.657 337.15 177.672 341.523 180.236 344.566C181.849 346.479 184.241 347.55 186.101 349.226C192.853 355.306 190.974 367.364 197.752 373.418C201.646 376.898 207.397 377.402 211.74 380.302C216.785 383.67 219.271 389.865 219.963 395.892C220.655 401.918 219.845 408.006 219.785 414.073C219.702 422.409 221.052 430.758 223.756 438.644C224.696 441.386 225.812 444.141 225.868 447.039C225.913 449.377 225.264 451.662 224.77 453.948C222.17 465.986 223.974 478.927 229.767 489.794C229.463 487.798 232.439 486.604 234.082 487.779C235.725 488.953 236.052 491.289 235.743 493.286C235.433 495.283 234.639 497.207 234.597 499.227C234.534 502.308 236.212 505.133 237.958 507.671C242.961 514.944 249.004 521.498 255.847 527.073C261.424 531.615 269.688 535.494 275.358 531.071C269.876 529.842 265.577 524.569 265.476 518.948C265.366 512.776 269.154 505.071 264.205 501.387C262.115 499.833 258.849 499.589 257.794 497.205C256.203 493.61 261.534 490.297 261.296 486.372C261.164 484.178 259.343 482.536 258.094 480.728C256.846 478.921 256.359 475.984 258.257 474.878C260.112 473.797 262.87 475.396 264.477 473.972C265.449 473.112 265.433 471.582 266.146 470.498C267.415 468.573 270.252 468.794 272.394 467.944C275.406 466.749 276.985 463.255 276.935 460.015C276.885 456.775 275.546 453.709 274.231 450.748C282.982 449.925 293.841 447.316 295.563 438.693C296 436.502 295.726 434.176 296.462 432.066C297.827 428.153 302.452 425.515 302.368 421.373C302.316 418.86 300.456 416.698 300.201 414.199C299.657 408.874 306.093 405.763 311.395 405.062C316.699 404.36 323.096 403.812 325.537 399.048C328.31 393.639 323.769 386.366 327.003 381.219C328.828 378.315 332.711 376.98 333.992 373.797C335.666 369.641 331.969 365.304 331.612 360.837C331.22 355.955 334.796 351.775 336.713 347.268C338.63 342.76 337.495 335.798 332.616 335.398C331.134 329.24 324.078 323.263 317.75 323.094C315.026 323.021 312.159 323.693 309.659 322.609C307.702 321.76 306.34 319.986 304.778 318.533C300.089 314.167 292.957 312.624 286.882 314.66C285.823 306.649 283.163 298.852 279.103 291.866C278.307 290.496 277.41 289.108 276.054 288.29C272.848 286.353 268.781 288.33 265.036 288.31C258.975 288.278 254.395 283.098 250.327 278.605C246.258 274.111 240.637 269.534 234.794 271.144C232.756 271.705 230.78 273.011 228.707 272.604C227.108 272.289 225.897 271.023 224.492 270.199C223.087 269.375 220.969 269.149 220.091 270.522C219.878 268.173 217.271 266.357 214.995 266.972C212.719 267.586 211.38 270.469 212.378 272.605C212.811 269.554 206.332 266.887 203.427 267.912C201.989 268.42 200.876 269.629 199.424 270.096C197.816 270.612 195.7 270.315 194.784 271.735C193.959 273.014 194.796 274.787 194.242 276.206C193.496 278.115 190.76 278.257 188.898 277.403C187.037 276.549 185.439 275.044 183.425 274.677C180.424 274.128 177.385 276.263 174.404 275.616C169.384 274.525 169.153 267.478 170.267 262.461C171.381 257.443 171.673 250.551 166.81 248.898C164.546 248.129 162.096 248.992 159.725 249.307C157.355 249.623 154.391 248.99 153.664 246.71C153.133 245.046 154.061 243.303 154.957 241.803C156.448 239.305 157.939 236.807 159.43 234.309C160.378 232.72 161.357 231.03 161.368 229.178C161.38 227.326 160.018 225.331 158.167 225.364C157.086 225.382 156.136 226.058 155.303 226.746C148.789 232.12 142.412 240.701 134.215 238.678C126.825 236.853 124.384 227.29 125.718 219.793C127.436 210.14 133.189 201.27 141.3 195.768C144.115 193.858 147.95 192.364 150.774 194.257C152.28 195.268 153.252 197.126 155.007 197.591C160.489 199.044 160.668 186.756 166.339 186.755C167.34 192.748 177.623 190.984 181.084 195.979C183.112 198.905 181.937 202.848 181.881 206.409C181.825 209.969 184.683 214.394 187.958 213.003C192.758 205.544 187.329 194.87 191.521 187.053C196.206 178.316 210.013 178.151 214.872 169.51C217.904 164.117 217.808 155.442 223.884 154.29C232.509 152.655 239.222 143.872 246.785 139.411C248.63 138.323 250.535 137.213 252.651 136.882C257.344 136.148 262.709 139.235 266.593 136.5C268.102 135.436 269.074 133.623 270.787 132.935C272.478 132.257 274.37 132.873 276.183 133.053C277.995 133.232 280.26 132.6 280.626 130.816C281.215 127.95 276.761 127.106 273.992 128.044C271.222 128.981 267.223 129.797 266.184 127.063C265.216 124.519 268.392 122.004 267.99 119.312C267.667 117.159 265.066 115.986 262.929 116.399C260.792 116.813 259.056 118.317 257.431 119.764C256.186 119.325 256.7 117.42 257.569 116.424C261.934 111.417 269.168 110.077 275.81 110.118C282.451 110.16 289.183 111.257 295.673 109.858C299.32 109.073 303.51 105.419 301.372 102.361C299.559 99.7671 294.684 100.614 293.417 97.7141C292.875 96.4723 293.282 95.028 293.056 93.6929C292.829 92.3577 291.205 91.0613 290.22 91.9916C289.267 88.8949 290.486 85.5815 290.478 82.3426C290.471 79.1038 288.03 75.2448 284.898 76.0645C283.269 79.7556 279.387 84.1602 276.125 81.787C273.735 80.0485 274.535 76.3431 273.643 73.5234C271.938 68.134 264.807 67.2468 259.158 67.3559C256.783 67.4018 254.114 67.5784 252.549 69.3672C251.572 70.4856 251.246 72.0088 250.74 73.4057C249.656 76.3904 247.583 79.0048 244.925 80.7419C245.7 83.0633 246.475 85.3848 247.25 87.7062C244.96 91.9098 237.376 90.1081 234.441 93.8881C232.99 95.7574 233.125 98.353 232.65 100.672C231.943 104.13 229.672 107.237 226.594 108.961C222.535 107.59 220.871 101.738 223.604 98.4363C224.262 97.6395 225.11 96.9906 225.626 96.0947C226.139 95.1975 226.191 93.8939 225.367 93.2708C224.307 92.4697 222.849 93.3354 221.543 93.5838C216.958 94.4538 214.394 87.5713 209.779 86.8764C207.359 86.5118 204.314 87.7794 202.777 85.8758C202.119 85.0618 202.048 83.9348 202.005 82.8882C201.915 80.6701 201.855 78.3257 202.925 76.3818C205.142 72.3548 210.78 72.0792 214.59 69.5094C216.387 68.2977 217.77 66.5634 219.514 65.2756C221.256 63.9879 223.645 63.1825 225.58 64.1544C227.762 63.2585 230.264 61.375 232.446 60.4791C235.108 59.3852 237.818 58.2797 240.682 57.9954C242.077 57.8562 243.493 57.9151 244.875 57.6782C246.469 57.404 247.969 56.7436 249.428 56.0473C255.75 53.0324 261.689 49.2164 267.059 44.7186C269.219 42.9096 272.907 41.1711 274.34 43.5959C272.884 45.5196 271.427 47.4434 269.971 49.3672C270.698 50.9033 272.924 50.9766 274.468 50.2659C276.012 49.5553 277.314 48.3149 278.961 47.8957C280.607 47.4779 282.817 48.5058 282.639 50.1956C277.652 54.0101 271.576 56.3832 265.324 56.9575C263.965 57.0824 262.526 57.147 261.386 57.8978C260.247 58.6487 259.627 60.3829 260.534 61.4037C261.912 62.9542 264.285 61.2357 266.184 60.4002C270.563 58.4735 275.286 62.0469 278.67 65.4307C282.053 68.8145 286.502 72.5788 291.034 71.0441C291.298 70.3952 291.56 69.7448 291.824 69.0959C290.582 68.0737 289.34 67.0515 288.098 66.0279C289.609 65.1737 291.038 67.4794 292.749 67.7708C294.571 68.0823 295.949 65.8513 295.663 64.0237C295.378 62.1962 294.086 60.7217 293.074 59.1741C292.063 57.6265 291.292 55.6194 292.129 53.9713C294.461 53.0353 297.411 54.0962 298.614 56.3043C299.493 57.9208 300.08 60.4059 301.916 60.2652C303.068 60.1762 303.765 58.976 304.197 57.9036C305.368 54.9964 306.1 51.9112 306.36 48.7886C305.098 47.7865 303.295 48.111 301.685 48.0981C300.074 48.0852 298.083 47.1864 298.205 45.5799C298.321 44.0395 300.297 43.303 300.785 41.8386C301.564 39.5028 298.063 37.9222 295.736 38.7262C294.839 39.0363 293.905 39.5215 292.995 39.2573C291.269 38.7577 291.315 36.3588 290.761 34.6489C289.695 31.3598 285.759 30.1524 282.379 29.426C281.052 29.1403 279.595 28.8704 278.396 29.5035C276.798 30.3463 275.488 32.6993 273.88 31.8781C273.23 31.5465 272.937 30.7956 272.523 30.1941C270.975 27.9315 267.037 28.0133 265.585 30.3376C265.971 27.8023 261.999 27.3429 259.633 28.332C256.668 29.5724 253.897 31.2751 251.452 33.3626C250.154 34.4695 248.886 35.7974 248.587 37.4771C248.289 39.1568 249.42 41.1696 251.126 41.1883C251.709 41.194 252.313 40.9787 252.858 41.1811C254.253 41.6951 253.567 43.8442 252.496 44.875C249.767 47.5037 245.907 48.915 242.127 48.6666C244.447 48.6853 244.397 44.7918 242.499 43.4581C239.022 41.016 234.29 43.224 230.663 45.4378C228.351 46.8491 226.039 48.2603 223.726 49.6701C221.778 50.8588 217.783 48.602 216.076 47.0874C211.528 49.6773 205.459 49.2925 201.273 46.1485C202.473 44.1285 205.274 43.8084 207.599 44.1515C209.924 44.4946 212.316 45.2627 214.563 44.5793C216.81 43.8959 218.453 40.8236 216.79 39.164C215.754 40.4863 213.388 39.1253 213.31 37.447C213.233 35.7687 214.484 34.356 215.671 33.1673C216.858 31.9786 218.143 30.6233 218.168 28.9436C213.319 27.9473 208.997 35.226 204.524 33.1013C203.532 32.6304 202.731 31.7245 201.648 31.545C200.153 31.2981 198.741 32.5356 197.229 32.4036C196.011 32.2973 195.07 31.3426 194.136 30.553C186.734 24.2979 175.305 26.6409 166.892 31.4488C164.659 32.7251 162.209 35.2949 163.591 37.4642C165.084 39.8072 168.66 38.2682 170.98 36.7421C173.301 35.216 177.423 34.5771 177.97 37.3005C177.208 38.2509 176.162 38.9717 175.001 39.3406C173.464 41.3146 176.204 44.0883 178.703 44.0897C181.203 44.0897 183.577 42.7345 186.075 42.8551C188.572 42.9757 191.055 46.0982 189.251 47.831C188.421 48.6278 187.137 48.6393 185.988 48.602C182.153 48.4771 178.317 48.3536 174.483 48.2287C176.324 46.4413 173.414 43.4121 170.851 43.5428C168.288 43.6734 165.805 45.1808 163.293 44.6568C160.347 44.0424 157.907 40.7375 155.034 41.6362C153.672 42.0626 152.711 43.3762 151.328 43.7323C150.01 44.0711 148.66 43.4681 147.386 42.9929C141.865 40.9385 135.511 41.2385 130.208 43.8055C130.612 43.2944 129.062 44.0897 129.469 43.5858Z" fill="#EAEAF3"/>
<path d="M339.127 7.75077C330.929 10.1225 322.729 12.4927 314.531 14.8644C312.281 15.5148 309.445 17.4572 310.622 19.4829C311.895 21.6751 315.307 19.7011 317.778 20.2682C320.512 20.8941 321.524 24.5723 324.157 25.537C327.231 26.6626 330.693 23.5113 333.744 24.6972C337.277 26.0711 336.568 31.2337 335.214 34.7769C337.957 34.6592 341.47 35.054 342.247 37.6898C343.448 41.7642 337.029 43.2372 334.103 46.3138C331.884 48.6481 331.758 52.2129 331.761 55.433C331.768 61.8461 332.441 69.4722 338.016 72.6378C341.876 74.8301 348.003 75.0239 348.767 79.3983C352.817 71.363 358.023 63.912 364.175 57.3453C365.765 55.6498 367.56 53.9328 369.842 53.4906C372.945 52.889 376.021 54.8042 379.18 54.7037C386.725 54.464 391.575 43.2874 398.881 45.1925C402.04 46.0152 404.677 49.2884 407.857 48.5548C412.762 47.4221 411.171 39.5533 414.444 35.7273C416.129 33.759 418.88 33.1733 421.422 32.6837C423.965 32.1956 426.719 31.5653 428.351 29.554C429.982 27.5426 429.427 23.7439 426.88 23.2759C431.172 20.5295 434.244 15.9426 435.153 10.9264C438.074 11.7778 440.291 7.34592 438.602 4.812C436.915 2.27807 433.349 1.78134 430.354 2.31971C427.359 2.85808 424.506 4.17313 421.467 4.34397C417.462 4.56937 413.653 2.79921 409.751 1.86317C399.699 -0.550158 389.443 2.52214 379.432 3.60462C371.66 4.44447 363.917 3.39501 356.155 4.05684C350.35 4.55214 344.702 6.13854 339.127 7.75077Z" fill="#EAEAF3"/>
<path d="M422.44 54.8576C419.817 54.7012 417.146 55.7994 415.391 57.7577C414.844 57.0929 414.685 56.1957 414.283 55.4348C413.461 53.8742 411.524 52.9956 409.809 53.4048C408.094 53.8154 406.762 55.475 406.735 57.2394C406.699 59.4847 408.476 61.2922 410.124 62.8169C412.284 64.8139 414.777 66.9415 417.716 66.8267C420.528 66.7175 423.093 64.5239 425.871 64.9732C426.884 65.1369 427.82 65.648 428.838 65.7801C431.232 66.0887 433.423 64.2037 434.495 62.0416C435.295 60.428 435.648 58.4539 434.85 56.8403C434.052 55.2266 431.816 54.302 430.335 55.3271" fill="#EAEAF3"/>
<path d="M963.671 51.8341C951.323 48.1832 938.751 45.299 926.046 43.203C917.01 41.7113 907.792 40.6174 898.706 41.7845C891.325 42.7335 883.164 45.0047 876.929 40.9375C875.116 39.7545 873.599 38.0878 871.596 37.2666C868.163 35.8596 864.313 37.2623 860.635 37.7475C846.516 39.6124 831.766 27.7453 818.868 33.7865C814.715 35.7318 810.578 39.5033 806.232 38.0375C804.035 37.2967 802.246 35.2552 799.928 35.294C798.112 35.3227 796.537 36.6578 794.726 36.8129C791.604 37.0814 789.415 33.9861 787.063 31.913C774.877 21.1729 753.483 36.5975 740.127 27.3548C743.27 26.5738 743.308 21.506 740.661 19.6411C738.012 17.7762 734.344 18.3992 731.372 19.687C728.4 20.9748 725.623 22.8584 722.429 23.3967C716.769 24.35 711.373 20.9102 705.721 19.9081C699.483 18.8027 693.149 20.7049 687.1 22.587C679.404 24.9803 671.707 27.3749 664.011 29.7682C660.825 30.7588 656.992 33.0831 656.731 35.9314C654.758 33.0271 651.169 31.1866 647.824 32.1743C643.389 33.4836 641.472 42.1248 645.997 43.0781C647.471 43.3882 648.53 45.0133 648.218 46.4877C641.499 42.6244 633.509 41.0193 625.82 41.987C626.119 43.3178 626.417 44.6487 626.716 45.9795C622.455 44.1419 617.596 43.7284 613.088 44.8195C611.795 45.1325 610.483 45.5689 609.164 45.3952C607.082 45.121 605.327 43.3638 603.228 43.447C598.614 43.6308 596.302 52.1514 592.123 50.1889C590.647 49.4954 590.07 47.7324 589.032 46.4734C587.996 45.2129 585.541 44.7377 585.04 46.2896C586.62 48.0583 584.879 50.8736 582.86 52.1169C580.84 53.3602 578.278 54.2833 577.475 56.5158C576.954 57.9658 577.254 59.8249 576.087 60.8313C575.248 61.5549 574.002 61.4874 572.908 61.3065C567.841 60.4638 563.057 58.0031 559.425 54.3695C565.28 53.1276 571.453 53.4119 577.17 55.1878C579.112 52.0825 574.778 48.9025 571.295 47.7741C562.827 45.0291 554.359 42.2842 545.893 39.5378C544.542 39.0999 543.176 38.6591 541.761 38.5529C538.627 38.3189 535.63 39.7344 532.533 40.2714C526.808 41.2648 520.533 39.3023 515.32 41.8692C508.071 45.4411 506.804 55.7017 500.296 60.4939C498.095 62.1148 495.442 62.9877 493.074 64.3515C488.195 67.1597 484.629 72.15 483.55 77.6772C483.365 78.6276 483.258 79.6527 483.673 80.527C484.628 82.5355 487.555 82.4694 489.597 81.5879C491.639 80.7079 493.675 79.2981 495.868 79.6642C501.147 80.5442 500.239 89.3505 504.718 92.2835C508.007 94.4385 512.329 92.3582 515.674 90.2923C517.343 89.2615 519.15 88.0498 519.636 86.149C520.123 84.2482 518.164 81.8607 516.425 82.7695C515.523 81.3927 517.192 79.7345 518.744 79.1847C520.293 78.6348 522.248 78.1094 522.607 76.5029C523.166 73.9962 519.24 72.7443 518.636 70.2478C517.771 66.6672 523.359 65.6982 526.189 63.3423C528.241 61.6353 528.888 58.7956 530.364 56.5717C531.841 54.3479 535.317 52.8419 537.044 54.8762C539.429 57.6844 535.07 61.0424 532.224 63.381C528.291 66.6127 527.345 74.0623 531.997 76.1282C535.598 77.726 539.495 75.0543 543.153 73.5928C546.811 72.1313 552.636 73.4808 552.141 77.3901C547.59 76.7182 542.935 76.7728 538.402 77.5495C537.639 77.6801 536.815 77.8682 536.326 78.4697C534.289 80.9721 540.549 82.6231 541.17 85.7887C538.507 88.8968 532.879 82.2297 529.821 84.9488C527.636 86.8898 530.073 90.99 528.259 93.2813C526.474 95.5339 522.932 93.7953 520.058 93.8154C514.822 93.8527 510.304 100.368 505.507 98.2659C500.342 96.0033 500.579 85.5862 494.99 86.3299C492.247 86.6946 490.967 89.8501 490.221 92.5147C489.667 94.4944 489.112 96.4742 488.558 98.454C488.232 99.6154 487.522 101.048 486.329 100.882C485.727 100.798 485.776 100.165 486.011 99.7073C483.112 100.369 480.068 103.196 479.027 105.863C478.678 106.756 478.466 107.738 477.836 108.46C475.907 110.674 472.133 108.597 470.851 105.957C469.568 103.317 469.243 100.058 467.038 98.1195C464.599 95.976 459.931 95.2166 460.163 91.9777C460.239 90.9254 460.908 90.021 461.278 89.0318C462.408 86.0083 460.073 82.2282 456.864 81.8866C453.655 81.5449 450.577 84.7493 451.047 87.9421C451.2 88.9873 451.661 90.0611 451.314 91.0575C451.09 91.6978 450.564 92.183 450.026 92.5936C447.684 94.381 444.793 95.2711 442.243 96.7441C439.693 98.2171 437.324 100.648 437.328 103.594C437.332 106.54 441.009 109.196 443.343 107.398C444.124 106.797 444.573 105.873 445.124 105.055C447.72 101.199 452.559 99.6671 457.029 98.3937C459.14 98.5602 458.747 101.989 457.104 103.322C455.459 104.657 453.074 105.578 452.71 107.665C452.256 110.262 455.531 112.052 458.147 111.744C460.763 111.435 463.157 109.962 465.786 109.8C468.415 109.638 471.529 111.877 470.65 114.364C469.962 116.316 467.348 116.806 465.345 116.289C463.342 115.772 461.517 114.589 459.457 114.377C458.413 115.93 457.747 117.738 457.536 119.598C456.831 118.023 454.697 117.284 453.17 118.086C451.642 118.889 451.038 121.064 451.933 122.54C453.033 124.353 455.495 124.594 457.455 125.401C461.739 127.164 463.953 132.762 462.036 136.98C461.723 137.667 461.277 138.352 460.584 138.654C459.516 139.116 458.316 138.523 457.262 138.031C451.288 135.241 443.959 135.567 438.256 138.878C435.746 140.335 433.33 142.965 434.014 145.786C434.471 147.662 436.194 149.022 436.686 150.89C437.931 155.619 430.933 160.687 433.894 164.577C435.415 166.576 438.417 166.313 440.852 166.926C443.287 167.539 445.383 171.068 443.178 172.269C444.704 180.579 426.846 183.098 427.504 191.521C427.631 193.162 428.471 194.717 428.393 196.361C428.241 199.567 424.908 201.486 422.145 203.119C414.601 207.578 408.415 214.302 404.597 222.193C403.911 223.611 403.285 225.154 403.494 226.716C403.684 228.129 404.528 229.352 405.122 230.647C409.609 240.451 399.525 252.852 404.818 262.246C406.198 264.697 408.454 266.507 410.331 268.601C414.633 273.402 416.905 279.64 420.235 285.159C423.566 290.679 428.734 295.882 435.172 296.156C440.397 296.378 445.309 293.292 450.539 293.348C452.975 293.374 455.393 294.087 457.817 293.845C462.225 293.404 465.654 289.99 469.505 287.802C473.357 285.612 479.255 285.175 481.314 289.098C482.465 291.293 482.11 294.412 484.16 295.803C486.542 297.421 489.74 295.135 492.588 295.566C496.488 296.154 497.749 301.341 496.804 305.173C495.858 309.004 493.639 312.667 494.053 316.591C494.589 321.689 499.27 325.185 503.535 328.026C506.474 329.983 506.212 333.054 506.731 336.546C507.251 340.039 506.889 343.718 508.192 347.001C508.968 348.956 510.307 350.68 510.844 352.716C512.994 360.881 501.734 367.17 501.798 375.613C501.843 381.62 507.525 385.947 509.727 391.535C512.194 397.793 510.108 405.172 512.694 411.381C514.598 415.954 518.91 419.551 519.453 424.476C519.817 427.781 518.429 431.429 520.121 434.29C521.644 436.864 525.26 437.925 526.133 440.785C526.899 443.294 525.272 446.496 527.07 448.407C527.76 449.14 528.786 449.435 529.759 449.699C534.37 450.949 539.351 452.187 543.821 450.501C548.121 448.88 551.293 444.754 555.797 443.844C558.144 443.37 560.603 443.838 562.949 443.365C568.791 442.184 571.92 435.825 573.421 430.053C574.92 424.282 575.941 417.843 580.438 413.931C581.983 412.587 583.918 411.569 584.899 409.772C586.528 406.791 584.878 403.162 584.727 399.77C584.465 393.84 588.863 388.781 593.393 384.951C597.924 381.121 603.09 377.53 605.399 372.063C610.304 360.446 599.96 347.499 601.775 335.02C603.048 326.269 609.946 319.614 615.917 313.094C625.948 302.137 634.323 289.667 640.673 276.236C641.228 275.062 641.772 273.688 641.222 272.511C640.75 271.499 639.611 270.982 638.52 270.741C634.738 269.904 630.886 271.379 627.083 272.12C623.28 272.861 618.652 272.527 616.51 269.299C615.249 267.4 615.168 264.918 613.989 262.968C611.571 258.974 605.809 258.782 602.147 255.886C599.928 254.132 598.624 251.489 597.5 248.891C594.771 242.58 592.689 235.989 591.297 229.255C590.744 226.581 590.284 223.838 589.012 221.423C587 217.604 583.233 215.092 580.26 211.964C577.287 208.835 575.004 204.171 576.886 200.287C579.521 198.69 582.822 200.863 584.884 203.153C588.837 207.542 591.785 212.831 593.438 218.502C594.019 220.496 594.471 222.596 595.708 224.264C596.753 225.673 598.267 226.646 599.527 227.866C604.401 232.591 604.8 240.094 606.267 246.724C607.733 253.353 612.178 260.763 618.958 260.454C627.024 260.087 632.185 248.86 640.155 250.156C641.725 250.412 643.181 251.164 644.753 251.415C647.872 251.915 650.983 250.373 653.424 248.366C658.074 244.543 661.029 239.092 663.904 233.801C666.165 229.647 668.524 225.017 667.472 220.405C666.42 215.794 659.957 212.552 656.813 216.085C656.162 214.149 655.92 212.077 656.105 210.043C652.423 208.683 650.285 214.489 646.686 216.054C643.148 217.591 639.238 214.496 637.428 211.088C635.619 207.681 634.753 203.648 632 200.946C629.247 198.246 624.371 195.416 626.261 192.055C627.987 188.988 632.769 190.99 635.098 193.629C639.68 198.82 644.045 206.198 650.948 205.678C653.878 205.457 657.303 203.859 659.417 205.902C660.35 206.804 660.666 208.186 661.527 209.157C662.388 210.127 664.385 210.281 664.674 209.015C670.772 213.556 677.671 213.702 685.042 211.846C687.773 211.158 690.791 210.051 693.256 211.415C698.031 214.058 696.664 223.68 702.093 224.238C704.134 224.449 706.833 223.256 707.863 225.031C708.317 225.813 708.107 226.803 708.294 227.688C708.904 230.594 714.354 229.849 714.163 226.886C718.497 239.715 716.603 254.829 724.501 265.826C728.843 271.872 736.03 276.515 737.066 283.887C738.511 283.502 739.956 283.117 741.401 282.733C743.384 283.209 743.291 286.325 744.983 287.464C746.95 288.79 749.575 286.215 749.411 283.848C749.249 281.481 747.563 279.551 746.353 277.51C742.419 270.873 743.379 262.544 744.465 254.904C744.773 252.732 745.103 250.495 746.214 248.603C748.226 245.175 752.304 243.613 755.189 240.878C758.782 237.471 760.312 232.475 763.001 228.317C765.69 224.159 770.81 220.59 775.359 222.543C777.839 223.607 779.416 226.019 781.374 227.876C783.331 229.736 786.426 231.084 788.653 229.559C788.563 233.216 788.5 237.013 789.985 240.355C791.47 243.697 794.983 246.439 798.582 245.798C799.42 251.57 806.742 254.611 807.778 260.352C808.561 264.695 805.417 268.85 805.404 273.263C805.384 280.034 812.301 284.523 815.335 290.576C818.622 297.135 818.614 307.065 825.716 308.904C827.139 309.273 828.383 310.824 829.853 310.778C831.322 310.733 832.843 309.427 832.528 307.99C832.182 306.418 830.18 305.974 828.99 304.888C826.417 302.537 828.314 298.305 827.907 294.842C827.422 290.713 823.626 287.922 820.304 285.424C817.054 282.981 813.877 280.239 812.003 276.63C810.13 273.02 809.81 268.353 812.159 265.032C814.508 261.713 819.894 260.651 822.761 263.534C825.582 266.369 825.137 271.55 828.304 273.992C829.61 273.898 830.918 273.803 832.223 273.71C831.12 274.462 832.162 276.409 833.495 276.47C834.829 276.531 835.94 275.516 836.882 274.568C842.426 268.998 848.4 261 844.666 254.083C841.893 248.943 834.88 247.317 831.982 242.246C828.653 236.42 833.842 227.842 840.545 228.09C839.869 231.118 839.211 234.374 840.393 237.243C841.575 240.111 845.426 242.051 847.891 240.168C846.268 235.856 847.861 230.551 851.592 227.849C854.099 226.033 857.246 225.409 860.139 224.307C866.045 222.059 871.111 217.59 873.909 211.922C877.581 204.485 877.218 195.78 876.775 187.497C876.689 185.881 876.577 184.187 875.715 182.817C873.408 179.158 867.346 179.901 864.669 176.503C861.752 172.802 864.87 167.517 867.905 163.912C867.3 162.172 864.708 162.416 863.135 163.376C861.562 164.335 859.87 165.727 858.113 165.174C857.154 164.873 856.469 164.047 855.845 163.261C854.219 161.208 852.527 158.816 852.896 156.223C853.264 153.63 857.049 151.797 858.566 153.93C859.175 154.786 859.192 155.942 859.74 156.836C861.471 159.659 865.743 157.55 868.379 155.547C871.015 153.544 876.165 152.859 876.425 156.161C873.888 158.994 875.498 164.32 879.18 165.271C880.261 165.549 881.545 165.572 882.234 166.451C882.92 167.326 882.638 168.575 882.634 169.687C882.623 173.279 886.539 176.309 890.012 175.396C893.484 174.483 895.406 169.919 893.632 166.797C891.813 163.594 887.485 162.728 885.143 159.884C882.129 156.223 883.367 150.802 884.761 146.27C885.071 145.259 885.461 144.146 886.395 143.65C887.22 143.21 888.219 143.39 889.155 143.391C892.969 143.397 896.178 140.165 897.403 136.552C898.629 132.938 898.309 129.006 897.975 125.206C897.633 121.321 897.965 116.993 895.646 113.858C894.964 112.937 894.14 112.104 893.652 111.068C892.547 108.722 893.36 105.813 892.253 103.469C890.524 99.802 885.486 99.591 881.44 99.8365C877.395 100.082 872.293 99.5881 870.889 95.7851C870.313 94.2303 870.57 92.4975 870.95 90.8838C871.971 86.5438 873.949 82.2527 877.431 79.4675C880.912 76.6823 886.107 75.7621 889.901 78.1007C892.903 79.9513 895.521 83.7515 898.917 82.8039C900.827 82.2713 901.968 80.3734 902.968 78.6607C905.488 74.3451 908.684 69.9333 913.456 68.4546C918.227 66.9759 924.565 70.2449 924.251 75.2323C924.014 78.9866 920.352 81.8019 919.933 85.5389C919.511 89.3103 922.493 92.5735 925.54 94.8318C928.586 97.0915 932.106 99.1431 933.652 102.609C934.758 105.091 934.875 108.292 937.123 109.819C940.369 112.022 944.625 108.574 946.184 104.973C946.913 103.289 947.401 101.315 946.619 99.6556C945.888 98.1051 944.208 97.1834 943.426 95.6588C941.751 92.3941 944.765 87.7885 942.4 84.9818C940.407 82.6173 936.056 83.5577 934.189 81.0926C932.663 79.077 934.489 75.6085 937.014 75.7276C938.154 73.2583 940.201 70.9871 942.833 71.6676C944.689 72.1471 946.237 73.5124 948.115 73.89C951.855 74.6408 955.496 70.1688 954.005 66.6572C956.638 66.9903 959.363 66.5538 961.761 65.4153C958.27 61.6525 953.287 59.3124 948.163 59.031C948.931 55.5596 953.615 54.5303 956.98 55.673C960.345 56.8158 963.134 59.311 966.524 60.3777C969.915 61.4443 974.592 60.1695 975.123 56.6536C971.691 54.3034 967.66 53.0142 963.671 51.8341ZM593.263 149.108C589.883 149.651 586.497 148.244 583.532 146.531C582.273 145.803 580.879 144.983 579.461 145.306C577.737 145.7 576.835 147.569 575.43 148.643C571.146 151.919 564.354 146.871 559.751 149.678C559.534 151.19 559.317 152.7 559.099 154.212C557.495 154.604 555.909 153.672 554.351 153.126C552.792 152.581 550.624 152.674 550.008 154.207C549.238 156.127 551.591 157.673 553.069 159.12C555.913 161.903 557.166 167.372 561.14 167.183C562.939 167.097 564.493 165.685 566.294 165.68C569.154 165.671 571.106 169.109 573.965 169.181C576.294 169.239 578.171 167.016 580.498 166.917C583.431 166.794 585.419 170.137 585.387 173.075C585.356 176.012 584.047 178.78 583.618 181.686C583.34 183.575 583.431 185.53 582.869 187.354C582.306 189.178 580.823 190.927 578.915 190.967C575.747 191.035 573.775 186.619 570.614 186.853C568.454 187.013 567.075 189.293 565.036 190.024C560.97 191.483 557.301 186.363 552.983 186.304C551.063 186.278 549.1 187.27 547.289 186.633C545.429 185.977 544.542 183.9 543.1 182.554C541.255 180.834 538.317 180.411 536.061 181.541C533.806 182.669 532.382 185.275 532.652 187.784C532.791 189.078 533.295 190.528 532.526 191.576C532.065 192.203 531.266 192.476 530.505 192.637C525.788 193.628 520.68 191.447 517.746 187.622C516.484 185.976 515.529 184.006 513.803 182.854C511.386 181.242 508.219 181.686 505.316 181.578C502.413 181.469 498.963 180.144 498.58 177.263C498.094 173.615 502.989 170.581 501.897 167.065C501.686 166.385 501.261 165.793 500.843 165.215C500.177 164.291 499.51 163.37 498.844 162.447C497.175 160.137 495.25 157.653 492.458 157.08C492.539 159.637 492.619 162.194 492.7 164.751C482.323 168.977 469.715 164.378 459.694 169.394C457.233 170.626 454.936 172.433 452.198 172.7C449.46 172.967 446.255 170.582 447.097 167.962C447.803 165.766 450.348 165.496 452.311 165.352C455.418 165.126 459.516 165.407 461.623 162.617C464.137 159.287 462.942 154.15 466.106 151.231C468.515 149.009 472.954 149.038 474.145 145.984C474.778 144.362 474.173 142.382 475.072 140.89C476.135 139.123 478.668 139.025 480.671 139.508C482.676 139.99 484.758 140.839 486.726 140.224C488.846 139.562 490.204 137.364 492.316 136.678C494.954 135.823 497.745 137.631 499.476 139.799C501.206 141.966 502.402 144.591 504.507 146.396C507.121 148.637 510.765 149.292 513.547 151.319C516.33 153.346 517.715 158.166 514.776 159.956C513.229 160.898 511.261 160.498 509.456 160.646C507.652 160.794 505.553 162.174 506.016 163.925C506.286 164.945 507.331 165.553 508.337 165.866C513.123 167.361 518.824 163.888 519.692 158.948C519.986 157.278 519.798 155.535 520.248 153.9C520.695 152.265 522.117 150.671 523.798 150.885C523.445 148.564 519.298 150.508 517.59 148.897C516.918 148.262 516.841 147.246 516.575 146.36C515.848 143.934 513.579 142.332 511.369 141.096C509.159 139.86 506.754 138.708 505.326 136.615C503.898 134.522 504.015 131.124 506.266 129.965C516.745 136.072 528.182 143.421 530.97 155.228C531.937 159.321 532.642 164.725 536.757 165.575C539.762 166.195 542.805 162.864 541.918 159.927C541.453 158.388 540.181 157.165 539.853 155.591C539.326 153.075 541.506 150.648 543.966 149.905C546.425 149.161 549.063 149.631 551.608 149.987C553.668 150.275 556.569 149.814 556.608 147.736C556.64 146.089 554.702 145.174 553.926 143.721C552.98 141.956 553.939 139.752 555.236 138.226C556.533 136.7 558.205 135.421 559.002 133.583C559.535 132.354 559.63 130.967 560.177 129.745C561.699 126.35 567.013 125.558 569.46 128.36C570.568 129.629 571.04 131.315 571.781 132.828C572.521 134.341 573.758 135.833 575.435 135.985C577.113 136.137 578.789 134.078 577.767 132.739C576.942 131.658 574.963 131.661 574.596 130.35C574.249 129.109 575.718 128.189 576.926 127.741C579.649 126.732 582.372 125.723 585.095 124.713C585.852 124.434 586.726 124.159 587.432 124.55C588.676 125.24 588.181 127.209 587.174 128.214C586.167 129.219 584.759 129.982 584.371 131.352C587.835 136.504 593.18 140.361 599.158 142.025C599.776 145.397 596.642 148.565 593.263 149.108ZM638.347 165.895C635.956 166.145 633.628 165.157 631.427 164.191C629.573 163.377 627.677 162.536 626.221 161.13C624.764 159.725 623.811 157.614 624.328 155.656C624.902 153.472 627.174 151.5 626.338 149.402C623.552 149.684 620.742 147.496 620.329 144.725C620.148 143.515 620.346 142.172 619.66 141.159C618.766 139.839 616.874 139.762 615.495 138.961C613.113 137.578 612.858 133.65 615.042 131.971C616.349 130.966 617.586 130.457 618.588 129.088C619.359 128.033 619.95 126.772 620.96 125.914C622.587 124.531 625.564 124.323 627.613 124.21C629.497 124.106 631.761 124.151 633.413 125.196C634.969 126.181 635.208 127.895 634.501 129.524C633.237 132.433 629.497 132.035 627.95 134.553C626.987 136.121 627.792 138.477 629.513 139.127C630.854 139.634 632.597 139.265 633.561 140.328C634.332 141.176 634.164 142.477 634.208 143.622C634.254 144.768 634.908 146.169 636.051 146.074C636.534 144.517 638.596 143.697 640.017 144.498C641.438 145.299 641.804 147.489 640.722 148.709C639.947 149.582 638.672 149.908 637.964 150.835C636.702 152.482 637.922 154.872 639.399 156.328C640.875 157.784 642.749 159.206 642.926 161.272C643.13 163.67 640.737 165.647 638.347 165.895ZM664.432 46.6457C663.111 48.3024 660.226 47.1625 659.279 45.266C658.341 43.3867 658.517 41.1658 658.095 39.1071C659.225 40.1106 660.832 40.6877 662.201 41.4429C664.088 42.4837 665.777 44.9602 664.432 46.6457Z" fill="#EAEAF3"/>
<path d="M904.676 120.311C907.488 124.349 910.414 128.737 910.382 133.658C911.658 132.571 913.782 133.741 914.275 135.345C914.768 136.947 914.205 138.658 913.746 140.271C913.287 141.883 912.955 143.721 913.826 145.152C914.326 145.973 915.151 146.53 915.861 147.178C918.698 149.768 919.662 153.772 920.488 157.523C921.142 160.496 921.293 164.502 918.466 165.627C916.413 166.444 913.267 165.452 912.447 167.505C912.074 168.44 912.515 169.561 912.106 170.48C911.047 172.857 907.436 170.46 904.873 170.907C903.896 171.078 903.064 171.714 902.376 172.429C897.632 177.362 899.7 186.916 906.06 189.443C904.62 184.213 909.28 178.265 914.7 178.416C916.794 178.473 919.284 179.151 920.697 177.605C921.684 176.525 921.647 174.755 922.705 173.743C924.065 172.442 926.276 173.133 928.145 172.912C932.204 172.429 934.026 166.239 930.874 163.634C929.995 162.907 928.882 162.469 928.105 161.633C925.57 158.908 927.977 153.942 925.707 150.994C924.564 149.512 922.587 149.022 920.953 148.114C919.318 147.203 917.859 145.194 918.79 143.57C920.479 140.624 926.058 144.18 928.176 141.527C929.299 140.12 928.393 137.902 926.896 136.904C925.4 135.906 923.527 135.721 921.785 135.273C915.507 133.664 910.444 128.069 909.467 121.659C909.102 119.267 909.248 116.758 908.356 114.509C907.218 111.647 902.672 107.183 899.262 108.948C897.003 110.116 898.834 111.922 899.838 113.364C901.451 115.677 903.063 117.994 904.676 120.311Z" fill="#EAEAF3"/>
<path d="M802.667 290.076C800.216 290.277 797.227 291.147 795.68 289.234C794.39 292.258 797.472 295.243 800.212 297.059C806.61 301.298 813.896 306.491 814.262 314.16C814.364 316.282 813.936 318.599 815.084 320.387C816.156 322.058 818.307 322.737 819.518 324.31C821.872 327.367 820.134 332.9 823.485 334.811C826.415 336.482 831.376 333.913 832.89 336.93C833.297 337.741 833.23 338.703 833.439 339.586C834.424 343.737 840.091 343.993 844.356 344.058C850.413 344.151 856.44 345.792 861.708 348.784C862.926 349.476 864.169 350.26 865.568 350.35C866.904 350.436 868.184 349.873 869.447 349.425C873.89 347.849 878.797 347.612 883.372 348.754C883.457 345.163 878.443 344.254 874.868 344.584C871.156 344.926 867.444 345.269 863.731 345.611C864.427 343.11 862.609 340.461 860.276 339.324C857.942 338.187 855.239 338.187 852.644 338.21C849.029 338.243 845.413 338.276 841.798 338.309C840.508 338.321 839.05 338.263 838.184 337.306C837.35 336.384 837.399 334.999 837.373 333.755C837.3 330.288 836.243 326.848 834.358 323.938C833.251 322.23 831.877 320.715 830.509 319.208C826.513 314.806 822.516 310.403 818.521 306.001C815.02 302.145 810.71 298.381 808.129 293.844C807.008 291.875 805.161 289.87 802.667 290.076Z" fill="#EAEAF3"/>
<path d="M853.103 302.619C851.275 302.771 852.024 306.877 850.196 306.714C849.758 306.675 849.409 306.342 849.006 306.167C847.215 305.386 845.728 307.732 845.165 309.604C844.771 310.91 844.388 312.374 845.011 313.589C845.654 314.845 847.143 315.387 848.139 316.384C849.907 318.156 849.85 320.973 849.999 323.471C850.148 325.969 851.028 328.922 853.44 329.587C856.592 330.455 860.056 326.695 862.867 328.362C864.064 329.071 864.648 330.586 865.905 331.179C867.422 331.892 869.228 330.943 870.351 329.699C873.663 326.022 873.502 320.193 876.649 316.373C877.772 315.009 879.335 313.853 879.71 312.128C880.546 308.269 874.908 304.998 876.148 301.25C876.86 299.096 879.51 298.208 880.63 296.236C881.938 293.935 880.277 290.551 877.656 290.181C877.025 290.092 876.32 290.131 875.829 289.723C874.646 288.739 876.075 286.83 875.802 285.315C875.555 283.941 873.826 283.252 872.49 283.651C871.154 284.051 870.183 285.198 869.421 286.366C868.103 288.386 867.161 290.652 866.655 293.01C866.388 294.254 866.233 295.547 865.635 296.669C865.073 297.719 863.88 298.747 862.617 298.506C862.566 297.184 861.606 298.489 861.26 298.91C860.532 299.795 859.991 300.628 859.03 301.311C856.991 302.759 855.37 302.431 853.103 302.619Z" fill="#EAEAF3"/>
<path d="M884.398 237.82C883.962 237.773 883.531 237.956 883.165 238.198C880.938 239.665 880.772 242.873 881.283 245.492C881.794 248.111 882.735 250.841 881.884 253.37C881.154 255.54 879.139 257.618 879.958 259.757C881.057 262.624 885.654 261.792 887.811 263.976C890.425 266.622 887.865 271.74 890.295 274.557C891.117 275.512 892.39 276.007 893.155 277.007C894.821 279.185 893.315 282.345 893.816 285.041C894.445 288.43 898.679 290.449 901.858 289.124C905.038 287.799 906.642 283.775 905.612 280.486C907.783 281.04 909.716 278.413 909.296 276.212C908.875 274.011 906.975 272.413 905.051 271.265C903.127 270.118 901 269.18 899.536 267.485C896.145 263.557 897.537 257.796 895.718 253.246C895.218 251.998 894.514 250.837 893.198 250.356C892.233 250.004 891.173 250.121 890.22 249.641C888.629 248.839 888.053 247.346 887.74 245.676C887.359 243.64 887.321 238.137 884.398 237.82Z" fill="#EAEAF3"/>
<path d="M922.087 319.096C923.296 319.919 924.838 320.042 926.186 320.611C927.532 321.179 928.789 322.612 928.269 323.979C927.988 324.72 927.265 325.198 926.859 325.878C925.628 327.943 927.931 330.511 930.289 330.976C932.646 331.442 935.129 330.785 937.468 331.332C941.367 332.244 943.723 336.103 945.643 339.618C946.427 341.053 947.238 342.677 946.801 344.253C946.576 345.069 946.021 345.848 946.176 346.681C946.465 348.236 948.75 348.295 950.138 347.535C951.524 346.776 952.913 345.561 954.459 345.894C956.017 346.23 956.793 347.947 958.004 348.984C959.913 350.617 963.179 350.259 964.687 348.25C966.19 346.25 966.401 342.818 968.858 342.355C969.653 342.206 970.47 342.464 971.199 342.816C976.958 345.598 978.495 353.509 983.931 356.883C986.081 358.216 989.904 357.882 989.998 355.352C990.079 353.202 987.422 352.26 985.604 351.108C982.809 349.338 981.387 345.65 982.269 342.46C982.85 340.361 984.214 337.857 982.7 336.293C981.27 334.815 978.702 335.855 976.793 335.094C973.952 333.961 974.1 329.854 972.31 327.373C970.499 324.863 967.014 324.4 963.928 324.179C960.491 323.933 956.961 323.606 953.705 322.401C950.573 321.243 948.526 318.321 945.392 317.361C943.029 316.637 940.684 317.448 938.297 317.509C934.704 317.6 932.461 315.071 929.123 314.499C927.068 314.148 923.817 314.341 921.922 315.298C920.325 316.102 920.66 318.124 922.087 319.096Z" fill="#EAEAF3"/>
<path d="M894.819 376.318C893.634 377.181 892.159 377.534 890.869 378.229C885.431 381.157 884.517 389.222 879.126 392.236C876.846 393.511 874.132 393.652 871.551 394.053C863.794 395.258 855.8 400.015 854.072 407.675C853.644 409.569 853.624 411.527 853.606 413.468C853.532 421.152 853.459 428.834 853.388 436.518C853.363 439.052 853.323 441.667 852.295 443.984C850.812 447.334 847.299 450.669 848.927 453.949C850.344 456.802 854.583 456.673 857.377 455.144C860.171 453.615 862.513 451.13 865.614 450.412C869.217 449.576 872.898 451.334 876.596 451.404C883.49 451.534 888.962 446.033 894.788 442.346C900.614 438.658 909.962 437.546 913.028 443.723C914.205 446.092 914.082 449.019 915.594 451.189C917.108 453.358 921.595 453.216 921.43 450.575C924.197 450.99 925.23 454.472 925.136 457.269C925.041 460.065 924.533 463.212 926.311 465.373C929.838 469.662 936.937 465.091 942.265 466.652C944.422 467.284 946.428 468.973 948.634 468.535C950.035 468.257 951.112 467.17 952.092 466.132C961.427 456.246 970.372 445.991 978.897 435.398C984.871 427.975 990.901 417.925 986.306 409.576C984.861 406.95 982.523 404.942 980.75 402.526C979.191 400.402 978.085 397.986 977.01 395.58C971.296 382.777 966.191 369.701 961.718 356.413C959.543 356.002 957.949 358.451 957.409 360.599C956.138 365.65 956.934 371.129 955.107 376.006C953.281 380.883 946.738 384.655 942.93 381.104C939.888 378.268 940.601 372.559 937.079 370.344C937.494 370.605 939.186 366.365 939.291 365.957C939.506 365.12 939.644 364.247 939.652 363.381C939.665 362.095 939.466 361.99 938.289 361.561C935.826 360.662 932.969 360.158 930.383 360.806C926.822 361.697 924.339 364.56 922.185 367.349C920.512 369.516 918.677 372.785 915.855 373.593C911.421 374.864 908.88 369.299 905.687 367.5C899.843 364.205 898.24 373.827 894.819 376.318Z" fill="#EAEAF3"/>
<path d="M617.872 377.953C615.543 378.228 614.154 380.941 614.444 383.268C614.734 385.595 616.203 387.582 617.623 389.449C616.172 392.385 614.721 395.319 613.272 398.255C612.218 400.387 611.141 402.618 611.156 404.995C611.179 408.371 613.378 411.305 615.605 413.84C616.647 415.026 617.862 416.262 619.431 416.427C621.697 416.667 623.568 414.511 624.175 412.314C624.782 410.118 624.57 407.772 625.046 405.542C626.556 398.476 634.526 394.04 635.608 386.895C635.925 384.806 635.605 382.662 635.893 380.569C636.202 378.324 637.192 376.239 638.003 374.123C639.158 371.104 640.028 367.287 637.631 364.613C636.275 363.1 633.355 362.19 631.534 363.463C630.14 364.438 629.891 366.49 629.545 368.016C629.038 370.254 628.491 372.492 627.13 374.389C626.204 375.678 624.948 376.839 623.5 377.511C621.542 378.423 619.876 377.718 617.872 377.953Z" fill="#EAEAF3"/>
<path d="M529.024 73.0931C529.024 61.5648 519.682 52.2188 508.159 52.2188C496.636 52.2188 487.294 61.5648 487.294 73.0931C487.294 78.8931 508.159 123.107 508.159 123.107C508.159 123.107 529.024 78.8931 529.024 73.0931Z" fill="#EFEFEF"/>
<path d="M508.159 86.264C515.061 86.264 520.657 80.6661 520.657 73.7609C520.657 66.8556 515.061 61.2578 508.159 61.2578C501.257 61.2578 495.662 66.8556 495.662 73.7609C495.662 80.6661 501.257 86.264 508.159 86.264Z" fill="#EFEFEF"/>
<path d="M508.161 86.6231C501.073 86.6231 495.307 80.8546 495.307 73.7639C495.307 66.6747 501.073 60.9062 508.161 60.9062C515.247 60.9062 521.013 66.6747 521.013 73.7639C521.013 73.9606 520.853 74.1185 520.657 74.1185C520.46 74.1185 520.301 73.9606 520.301 73.7639C520.301 67.0652 514.855 61.6155 508.159 61.6155C501.463 61.6155 496.016 67.0652 496.016 73.7639C496.016 80.4627 501.465 85.9124 508.159 85.9124C508.356 85.9124 508.514 86.0703 508.514 86.267C508.514 86.4637 508.357 86.6231 508.161 86.6231Z" fill="#828181"/>
<path d="M510.231 82.3673C512.91 81.2231 515.054 79.0194 516.163 76.329C516.277 76.0562 515.832 75.937 515.72 76.2069C514.655 78.7882 512.562 80.8757 510 81.9696C509.727 82.0859 509.961 82.4821 510.231 82.3673Z" fill="#828181"/>
<path d="M517.165 74.8095C517.383 74.0903 517.602 73.3696 517.82 72.6503C517.906 72.3661 517.462 72.2455 517.376 72.5283C517.158 73.2475 516.94 73.9682 516.721 74.6875C516.635 74.9703 517.079 75.0924 517.165 74.8095Z" fill="#828181"/>
<path d="M511.935 78.2367C512.484 76.9303 513.197 75.6942 514.043 74.5572C514.219 74.3188 513.82 74.0906 513.645 74.3246C512.774 75.4961 512.057 76.7681 511.49 78.1147C511.441 78.2296 511.541 78.3659 511.65 78.3975C511.784 78.4363 511.886 78.3516 511.935 78.2367Z" fill="#828181"/>
<path d="M503.092 66.6589C499.595 69.1268 498.375 74.143 500.364 77.9388C500.502 78.2016 500.898 77.969 500.762 77.7063C498.896 74.1459 500.038 69.3752 503.325 67.0552C503.564 66.8858 503.335 66.4881 503.092 66.6589Z" fill="#828181"/>
<path d="M501.77 71.2602C501.569 72.2939 501.367 73.329 501.166 74.3627C501.11 74.6512 501.552 74.7761 501.61 74.4847C501.811 73.451 502.013 72.4159 502.214 71.3823C502.27 71.0923 501.828 70.9688 501.77 71.2602Z" fill="#828181"/>
<path d="M495.727 85.6299C498.982 94.4319 502.237 103.234 505.491 112.036C505.593 112.311 506.038 112.192 505.935 111.914C502.68 103.112 499.425 94.3099 496.171 85.5079C496.069 85.2323 495.624 85.3514 495.727 85.6299Z" fill="#828181"/>
<path d="M976.294 258.476C976.294 246.948 966.952 237.602 955.429 237.602C943.905 237.602 934.563 246.948 934.563 258.476C934.563 264.276 955.429 308.49 955.429 308.49C955.429 308.49 976.294 264.276 976.294 258.476Z" fill="#EFEFEF"/>
<path d="M955.429 271.655C962.331 271.655 967.926 266.057 967.926 259.152C967.926 252.246 962.331 246.648 955.429 246.648C948.526 246.648 942.931 252.246 942.931 259.152C942.931 266.057 948.526 271.655 955.429 271.655Z" fill="#EFEFEF"/>
<path d="M955.429 272.006C948.343 272.006 942.577 266.237 942.577 259.147C942.577 252.057 948.343 246.289 955.429 246.289C962.518 246.289 968.284 252.057 968.284 259.147C968.284 259.343 968.124 259.501 967.928 259.501C967.731 259.501 967.572 259.343 967.572 259.147C967.572 252.448 962.124 246.998 955.429 246.998C948.733 246.998 943.287 252.448 943.287 259.147C943.287 265.845 948.733 271.295 955.429 271.295C955.625 271.295 955.785 271.453 955.785 271.65C955.785 271.848 955.625 272.006 955.429 272.006Z" fill="#828181"/>
<path d="M957.501 267.75C960.18 266.606 962.324 264.402 963.433 261.712C963.547 261.439 963.102 261.32 962.99 261.59C961.925 264.171 959.831 266.258 957.269 267.352C956.997 267.469 957.231 267.865 957.501 267.75Z" fill="#828181"/>
<path d="M964.435 260.192C964.653 259.473 964.872 258.752 965.09 258.033C965.176 257.749 964.732 257.628 964.646 257.911C964.428 258.63 964.21 259.351 963.992 260.07C963.905 260.353 964.349 260.475 964.435 260.192Z" fill="#828181"/>
<path d="M959.204 263.62C959.754 262.313 960.467 261.077 961.312 259.94C961.489 259.702 961.09 259.473 960.916 259.707C960.045 260.879 959.328 262.151 958.761 263.498C958.712 263.612 958.812 263.749 958.921 263.78C959.053 263.819 959.157 263.734 959.204 263.62Z" fill="#828181"/>
<path d="M950.362 252.042C946.864 254.51 945.645 259.526 947.634 263.322C947.771 263.584 948.168 263.352 948.031 263.089C946.166 259.529 947.308 254.758 950.594 252.438C950.834 252.269 950.604 251.871 950.362 252.042Z" fill="#828181"/>
<path d="M949.04 256.643C948.839 257.677 948.637 258.712 948.436 259.745C948.38 260.034 948.822 260.159 948.88 259.868C949.081 258.834 949.283 257.799 949.484 256.765C949.54 256.475 949.098 256.352 949.04 256.643Z" fill="#828181"/>
<path d="M942.997 271.013C946.252 279.815 949.507 288.617 952.763 297.419C952.865 297.694 953.309 297.575 953.206 297.297C949.951 288.495 946.697 279.693 943.442 270.891C943.339 270.615 942.894 270.734 942.997 271.013Z" fill="#828181"/>
<path d="M835.783 125.75C835.783 114.432 826.612 105.258 815.299 105.258C803.987 105.258 794.816 114.433 794.816 125.75C794.816 131.446 815.299 174.852 815.299 174.852C815.299 174.852 835.783 131.446 835.783 125.75Z" fill="#EFEFEF"/>
<path d="M815.298 138.685C822.075 138.685 827.569 133.189 827.569 126.409C827.569 119.629 822.075 114.133 815.298 114.133C808.521 114.133 803.027 119.629 803.027 126.409C803.027 133.189 808.521 138.685 815.298 138.685Z" fill="#EFEFEF"/>
<path d="M815.299 139.038C808.341 139.038 802.681 133.374 802.681 126.413C802.681 119.453 808.341 113.789 815.299 113.789C822.258 113.789 827.917 119.453 827.917 126.413C827.917 126.605 827.762 126.762 827.57 126.762C827.378 126.762 827.223 126.605 827.223 126.413C827.223 119.836 821.875 114.487 815.301 114.487C808.727 114.487 803.379 119.836 803.379 126.413C803.379 132.989 808.727 138.34 815.301 138.34C815.494 138.34 815.648 138.497 815.648 138.689C815.648 138.881 815.492 139.038 815.299 139.038Z" fill="#828181"/>
<path d="M817.331 134.854C819.962 133.73 822.066 131.566 823.155 128.926C823.265 128.657 822.829 128.541 822.72 128.805C821.675 131.339 819.619 133.389 817.103 134.463C816.838 134.578 817.067 134.967 817.331 134.854Z" fill="#828181"/>
<path d="M824.141 127.438C824.355 126.731 824.569 126.023 824.782 125.317C824.867 125.039 824.431 124.919 824.347 125.197C824.134 125.903 823.92 126.611 823.706 127.317C823.621 127.597 824.056 127.716 824.141 127.438Z" fill="#828181"/>
<path d="M819.005 130.796C819.544 129.514 820.244 128.301 821.075 127.184C821.249 126.95 820.857 126.726 820.686 126.956C819.831 128.107 819.127 129.355 818.571 130.675C818.524 130.789 818.623 130.922 818.729 130.952C818.857 130.991 818.957 130.908 819.005 130.796Z" fill="#828181"/>
<path d="M810.323 119.432C806.889 121.855 805.692 126.779 807.645 130.506C807.78 130.763 808.169 130.536 808.034 130.278C806.203 126.782 807.323 122.098 810.549 119.821C810.786 119.656 810.561 119.264 810.323 119.432Z" fill="#828181"/>
<path d="M809.027 123.952C808.829 124.967 808.632 125.983 808.434 126.998C808.378 127.283 808.813 127.403 808.869 127.119C809.067 126.104 809.265 125.088 809.462 124.073C809.517 123.788 809.082 123.666 809.027 123.952Z" fill="#828181"/>
<path d="M803.093 138.055C806.289 146.696 809.484 155.339 812.679 163.98C812.779 164.25 813.216 164.134 813.114 163.859C809.918 155.218 806.722 146.576 803.528 137.934C803.429 137.664 802.991 137.781 803.093 138.055Z" fill="#828181"/>
<path d="M751.614 51.7422L661.301 86.729L666.638 110.844L751.614 51.7422Z" fill="#CFCECE"/>
<path d="M751.614 51.7422L661.181 75.1275L673.915 57.6513L751.614 51.7422Z" fill="#CFCECE"/>
<path d="M661.181 75.1275L666.859 84.5769L751.614 51.7422L661.181 75.1275Z" fill="#B7B6B7"/>
<path d="M751.614 51.7422L690.588 101.736L680.06 101.508L751.614 51.7422Z" fill="#B7B6B7"/>
<path d="M236.845 227.696L311.905 216.461L317.623 234.951L236.845 227.696Z" fill="#CFCECE"/>
<path d="M236.845 227.7L307.486 208.518L292.038 201.562L236.845 227.7Z" fill="#CFCECE"/>
<path d="M307.486 208.516L307.285 217.153L236.845 227.697L307.486 208.516Z" fill="#B7B6B7"/>
<path d="M236.845 227.703L297.784 238.054L304.865 233.812L236.845 227.703Z" fill="#B7B6B7"/>
<path d="M877.748 241.773L793.312 253.54L793.026 275.279L877.748 241.773Z" fill="#CFCECE"/>
<path d="M877.748 241.771L795.546 243.571L809.98 231.164L877.748 241.771Z" fill="#CFCECE"/>
<path d="M795.546 243.574L798.508 252.816L877.748 241.773L795.546 243.574Z" fill="#B7B6B7"/>
<path d="M877.749 241.773L815.384 272.305L806.408 269.987L877.749 241.773Z" fill="#B7B6B7"/>
<path d="M324.392 214.341C347.061 224.147 369.793 233.958 393.356 241.446C416.206 248.708 440.601 254.472 464.727 253.817C485.697 253.249 507.176 246.085 519.385 228.023C524.566 220.36 527.696 210.88 526.625 201.568C525.595 192.598 520.75 184.128 513.785 178.433C507.073 172.944 497.866 169.96 489.325 172.492C485.176 173.722 482.582 176.65 480.273 180.154C477.618 184.183 476.345 188.037 475.774 192.821C474.393 204.385 477.071 215.75 481.63 226.339C485.215 234.664 490.84 241.728 498.121 247.13C513.156 258.284 533.012 261.6 551.005 256.874C570.564 251.736 587.265 238.394 599.036 222.229C612.781 203.353 620.119 180.606 624.855 157.972C629.401 136.248 631.16 113.366 640.777 93.0605C643.061 88.2367 645.805 83.6555 649.026 79.4002C649.184 79.1921 648.833 78.9896 648.676 79.1949C636.139 95.7537 631.951 116.505 628.408 136.519C624.521 158.479 620.342 180.447 610.953 200.845C602.243 219.765 589.08 236.861 571.115 247.785C554.744 257.738 535.199 261.541 516.652 255.921C507.95 253.283 499.754 248.75 493.178 242.436C485.848 235.399 481.435 226.401 478.522 216.758C476.863 211.266 475.857 205.577 475.797 199.831C475.742 194.564 476.087 188.742 478.506 183.974C480.507 180.032 483.305 175.506 487.459 173.61C492.001 171.539 497.567 171.606 502.312 172.873C511.4 175.297 518.87 182.362 522.967 190.69C527.232 199.359 527.321 209.124 524.032 218.133C516.722 238.157 496.64 249.475 476.477 252.429C465.165 254.087 453.629 253.576 442.318 252.169C430.452 250.693 418.72 248.237 407.184 245.107C384.204 238.874 362.043 230.009 340.165 220.693C334.967 218.479 329.781 216.238 324.596 213.995C324.359 213.888 324.153 214.238 324.392 214.341Z" fill="#828181"/>
<path d="M789.279 245.165C754.849 293.593 712.922 341.802 653.664 358.619C626.238 366.403 593.824 367.654 567.618 354.842C555.869 349.098 544.597 338.444 545.943 324.235C547.185 311.131 558.277 299.828 570.755 296.619C583.679 293.296 596.729 299.749 604.798 309.77C613.381 320.429 616.563 334.461 613.478 347.774C606.594 377.479 577.298 393.787 549.212 398.085C516.926 403.025 482.946 397.525 451.851 388.561C424.918 380.797 397.429 370.475 375.246 352.885C365.12 344.856 356.24 335.107 350.112 323.671C343.891 312.06 340.848 299.087 340.373 285.967C339.417 259.624 347.505 233.875 353.611 208.548C359.441 184.363 364.441 158.729 358.363 134.076C352.346 109.664 335.237 89.0585 313.628 76.6359C288.629 62.2636 258.242 59.2386 230.245 64.7587C206.135 69.5122 181.159 81.7554 168.808 104.005C158.929 121.8 160.403 146.192 174.097 161.704C190.334 180.095 220.226 176.429 236.07 159.276C243.076 151.692 247.999 141.145 247.329 130.651C246.617 119.5 238.941 111.601 228.765 107.867C217.277 103.65 204.027 103.04 191.934 104.025C180.09 104.99 168.394 107.897 157.518 112.698C134.739 122.753 116.741 141.197 109.108 165.109C100.45 192.232 104.985 221.638 116.867 247.035C122.812 259.74 130.501 271.534 139.151 282.551C139.312 282.756 139.598 282.468 139.438 282.264C120.687 258.385 106.212 229.917 105.07 199.061C104.004 170.233 115.066 142.188 138.272 124.477C158.184 109.281 184.128 102.426 208.978 104.409C222.103 105.457 238.603 108.565 244.749 121.847C250.131 133.48 245.231 147.515 237.589 156.907C228.619 167.933 213.752 174.371 199.582 173.6C186.851 172.908 175.981 165.694 169.614 154.785C163.775 144.785 161.716 132.61 163.377 121.193C165.201 108.665 172.044 97.5317 181.124 88.8934C201.552 69.459 231.943 61.9865 259.469 62.611C288.69 63.2743 317.412 74.3158 337.323 96.1392C346.477 106.173 353.492 118.182 357.203 131.278C360.737 143.747 361.312 156.821 360.203 169.682C357.926 196.116 349.228 221.428 343.942 247.307C339.161 270.71 337.173 295.542 346.918 318C356.914 341.037 377.35 357.271 399.098 368.644C425.115 382.25 454.317 391.2 483.153 396.288C512.397 401.447 545.385 403.551 573.424 391.946C595.426 382.84 615.352 362.146 615.111 337.001C614.91 316.052 597.119 292.617 574.334 295.524C552.699 298.284 536.91 323.886 551.188 342.633C558.333 352.014 569.879 357.099 580.918 360.244C594.351 364.072 608.433 365.358 622.355 364.487C680.89 360.821 728.448 322.444 764.268 278.837C773.156 268.018 781.517 256.783 789.628 245.374C789.78 245.158 789.429 244.954 789.279 245.165Z" fill="#828181"/>
<path d="M229.287 100.623C229.287 92.1712 222.439 85.3203 213.991 85.3203C205.543 85.3203 198.695 92.1712 198.695 100.623C198.695 104.875 213.991 137.289 213.991 137.289C213.991 137.289 229.287 104.875 229.287 100.623Z" fill="#EFEFEF"/>
<path d="M213.991 110.279C219.051 110.279 223.153 106.175 223.153 101.112C223.153 96.0494 219.051 91.9453 213.991 91.9453C208.93 91.9453 204.828 96.0494 204.828 101.112C204.828 106.175 208.93 110.279 213.991 110.279Z" fill="#EFEFEF"/>
<path d="M213.991 110.542C208.794 110.542 204.567 106.312 204.567 101.115C204.567 95.9184 208.794 91.6875 213.991 91.6875C219.187 91.6875 223.413 95.9169 223.413 101.115C223.413 101.259 223.297 101.377 223.152 101.377C223.007 101.377 222.891 101.26 222.891 101.115C222.891 96.2041 218.897 92.2086 213.989 92.2086C209.08 92.2086 205.086 96.2041 205.086 101.115C205.086 106.025 209.08 110.021 213.989 110.021C214.133 110.021 214.25 110.137 214.25 110.282C214.25 110.427 214.134 110.542 213.991 110.542Z" fill="#828181"/>
<path d="M215.509 107.424C217.473 106.586 219.045 104.969 219.858 102.998C219.942 102.797 219.616 102.711 219.534 102.909C218.753 104.801 217.218 106.332 215.339 107.134C215.14 107.217 215.311 107.509 215.509 107.424Z" fill="#828181"/>
<path d="M220.593 101.877C220.752 101.349 220.913 100.822 221.073 100.294C221.136 100.085 220.81 99.9963 220.748 100.204C220.589 100.733 220.428 101.26 220.269 101.788C220.204 101.996 220.53 102.085 220.593 101.877Z" fill="#828181"/>
<path d="M216.758 104.393C217.161 103.436 217.684 102.53 218.304 101.696C218.433 101.522 218.14 101.353 218.012 101.525C217.373 102.385 216.848 103.317 216.432 104.303C216.396 104.388 216.47 104.488 216.549 104.51C216.647 104.538 216.723 104.477 216.758 104.393Z" fill="#828181"/>
<path d="M210.276 95.9054C207.711 97.7143 206.817 101.392 208.275 104.175C208.376 104.367 208.667 104.196 208.567 104.004C207.199 101.394 208.036 97.8952 210.445 96.1954C210.622 96.0733 210.454 95.7805 210.276 95.9054Z" fill="#828181"/>
<path d="M209.307 99.2775C209.159 100.036 209.011 100.794 208.864 101.553C208.822 101.765 209.148 101.856 209.188 101.642C209.336 100.884 209.484 100.126 209.632 99.3665C209.673 99.1555 209.349 99.065 209.307 99.2775Z" fill="#828181"/>
<path d="M204.875 109.813C207.262 116.266 209.648 122.72 212.035 129.173C212.109 129.375 212.435 129.288 212.359 129.084C209.972 122.631 207.586 116.177 205.2 109.724C205.126 109.522 204.801 109.609 204.875 109.813Z" fill="#828181"/>
<path d="M597.67 290.818C597.67 282.367 590.822 275.516 582.374 275.516C573.926 275.516 567.078 282.367 567.078 290.818C567.078 295.071 582.374 327.485 582.374 327.485C582.374 327.485 597.67 295.071 597.67 290.818Z" fill="#EFEFEF"/>
<path d="M582.374 300.474C587.434 300.474 591.537 296.37 591.537 291.307C591.537 286.245 587.434 282.141 582.374 282.141C577.314 282.141 573.211 286.245 573.211 291.307C573.211 296.37 577.314 300.474 582.374 300.474Z" fill="#EFEFEF"/>
<path d="M582.374 300.736C577.179 300.736 572.952 296.506 572.952 291.309C572.952 286.112 577.179 281.883 582.374 281.883C587.57 281.883 591.798 286.112 591.798 291.309C591.798 291.453 591.682 291.569 591.538 291.569C591.395 291.569 591.278 291.453 591.278 291.309C591.278 286.398 587.283 282.403 582.374 282.403C577.465 282.403 573.471 286.398 573.471 291.309C573.471 296.221 577.465 300.216 582.374 300.216C582.518 300.216 582.634 300.332 582.634 300.476C582.634 300.619 582.518 300.736 582.374 300.736Z" fill="#828181"/>
<path d="M583.892 297.619C585.857 296.781 587.428 295.165 588.242 293.193C588.325 292.992 587.999 292.906 587.917 293.104C587.137 294.997 585.601 296.527 583.723 297.329C583.523 297.414 583.694 297.704 583.892 297.619Z" fill="#828181"/>
<path d="M588.976 292.08C589.136 291.552 589.297 291.025 589.456 290.497C589.519 290.288 589.193 290.199 589.132 290.408C588.972 290.936 588.811 291.463 588.652 291.991C588.587 292.198 588.913 292.287 588.976 292.08Z" fill="#828181"/>
<path d="M585.141 294.589C585.544 293.631 586.067 292.725 586.687 291.891C586.816 291.717 586.523 291.548 586.396 291.72C585.757 292.58 585.231 293.512 584.815 294.498C584.779 294.583 584.854 294.684 584.933 294.705C585.03 294.734 585.106 294.672 585.141 294.589Z" fill="#828181"/>
<path d="M578.659 286.101C576.094 287.91 575.2 291.588 576.658 294.371C576.759 294.563 577.05 294.392 576.949 294.2C575.582 291.59 576.418 288.091 578.828 286.391C579.004 286.268 578.837 285.975 578.659 286.101Z" fill="#828181"/>
<path d="M577.69 289.473C577.543 290.231 577.395 290.989 577.247 291.749C577.205 291.961 577.531 292.052 577.571 291.838C577.719 291.08 577.867 290.322 578.015 289.562C578.057 289.351 577.732 289.26 577.69 289.473Z" fill="#828181"/>
<path d="M573.259 300.009C575.645 306.462 578.031 312.915 580.418 319.368C580.492 319.571 580.818 319.483 580.742 319.279C578.356 312.826 575.969 306.373 573.583 299.92C573.51 299.717 573.184 299.805 573.259 300.009Z" fill="#828181"/>
</g>
</svg>
